<svg width="35" height="44" viewBox="0 0 35 44" fill="none" xmlns="http://www.w3.org/2000/svg">
<g id="Frame">
<g clip-path="url(#clip0_1_834)">
<g id="ySoOza.tif">
<path id="Vector" d="M19.9746 21.0462H10.029C10.0193 21.0372 10.0113 21.0228 10.0005 21.0204C9.11931 20.829 8.72517 20.3296 8.72517 19.4081C8.72517 17.6614 8.72156 15.9152 8.72877 14.1685C8.72877 13.8886 8.71595 13.6703 8.43437 13.4937C8.03382 13.2445 7.85397 12.8209 7.79349 12.3493V12.2264C7.82793 12.0817 7.85317 11.9342 7.89763 11.7933C8.10472 11.1414 8.31621 10.4912 8.5277 9.84092C8.67029 9.40087 8.75041 9.34229 9.20062 9.34229H20.7825C21.1206 9.34597 21.2291 9.42423 21.3357 9.75201C21.5452 10.3957 21.7514 11.041 21.9645 11.6839C22.2229 12.4656 22.047 13.077 21.3921 13.5641C21.2576 13.6641 21.2275 13.7649 21.2275 13.9181C21.2315 15.7963 21.2275 17.6741 21.2315 19.5523C21.2315 20.1739 20.9616 20.6176 20.4248 20.893C20.2822 20.9659 20.1232 20.997 19.9746 21.0462ZM11.7205 13.4011C11.36 13.5736 11.0327 13.7809 10.6762 13.8878C10.3198 13.9948 9.92602 14.0058 9.53148 14.0611C9.52781 14.0811 9.52593 14.1014 9.52586 14.1218C9.52586 15.9246 9.52266 17.7274 9.52586 19.5302C9.52586 19.9657 9.77501 20.2017 10.2068 20.2017C12.1561 20.2017 14.1067 20.2017 16.0584 20.2017C16.1293 20.2017 16.2002 20.1952 16.2911 20.1911V19.9366C16.294 18.7525 16.2847 17.5684 16.3044 16.3847C16.3144 15.7906 16.8111 15.2928 17.3935 15.2563C17.7251 15.2354 18.0592 15.235 18.3912 15.2461C19.1338 15.2707 19.6097 15.7828 19.6101 16.5441C19.6101 17.6872 19.6101 18.8304 19.6101 19.9735V20.1825C20.1072 20.2898 20.4368 19.9829 20.4304 19.4757C20.4084 17.7274 20.422 15.9783 20.422 14.2312V13.9915C19.5728 14.1087 18.8523 13.8735 18.217 13.3625C17.2769 14.1283 16.1574 14.375 14.9725 13.3953C13.8923 14.2529 12.8412 14.2914 11.7189 13.4011H11.7205ZM14.9449 10.1703C13.128 10.1703 11.3115 10.1732 9.49503 10.1662C9.31999 10.1662 9.23827 10.2121 9.1858 10.3883C9.02958 10.914 8.85494 11.4344 8.68431 11.9555C8.53771 12.4062 8.63665 12.6894 9.03279 12.9413C9.74537 13.3945 10.7652 13.2282 11.3179 12.5669C11.5583 12.28 11.783 12.2845 12.0389 12.5541C12.1812 12.7059 12.3392 12.8413 12.5104 12.9577C13.2245 13.433 14.129 13.2507 14.6301 12.541C14.836 12.2501 15.1376 12.2632 15.3511 12.5582C15.6527 12.9758 16.0592 13.2138 16.5727 13.2118C17.0862 13.2097 17.498 12.9504 17.8449 12.5808C18.1437 12.2628 18.3327 12.2649 18.6139 12.6017C19.1435 13.2355 20.1865 13.3937 20.8722 12.9438C21.26 12.6898 21.3573 12.4083 21.2139 11.9719C21.0429 11.4512 20.863 10.9324 20.7108 10.4059C20.6535 10.2085 20.561 10.1658 20.3751 10.1662C18.5627 10.1732 16.753 10.1703 14.9433 10.1703H14.9449ZM18.8118 20.194C18.8118 18.9324 18.8162 17.6971 18.8082 16.4617C18.8082 16.213 18.6376 16.0672 18.3916 16.061C18.1325 16.0545 17.8733 16.0573 17.6142 16.061C17.236 16.0643 17.0934 16.2093 17.0934 16.5904C17.0934 17.7251 17.0934 18.8595 17.0934 19.9936V20.1956L18.8118 20.194Z" fill="white"/>
<path id="Vector_2" d="M12.7274 19.3702C12.1951 19.3702 11.6628 19.3702 11.1305 19.3702C10.681 19.3681 10.3514 19.0338 10.3498 18.5728C10.3466 17.729 10.3466 16.8857 10.3498 16.0427C10.3498 15.5986 10.6598 15.2515 11.092 15.2475C12.1831 15.2365 13.2742 15.2365 14.3653 15.2475C14.8039 15.2528 15.1003 15.5912 15.1011 16.0419C15.1032 16.8854 15.1032 17.7288 15.1011 18.572C15.1011 19.0395 14.7783 19.3673 14.3244 19.3685C13.7921 19.3714 13.2598 19.3702 12.7274 19.3702ZM11.1509 18.5445H14.2936V16.0726H11.1509V18.5445Z" fill="white"/>
</g>
<g id="fYHJUF">
<path id="Vector_3" d="M31.4011 39.1265C31.4011 39.7997 31.4071 40.4536 31.3974 41.1068C31.3955 41.3311 31.3707 41.5547 31.3233 41.7738C31.1942 42.3489 30.8936 42.8687 30.4631 43.2614C30.0325 43.6541 29.4933 43.9003 28.92 43.9658C28.7548 43.9864 28.5886 43.9972 28.4222 43.9982C24.7104 44.0001 20.9986 44.0001 17.2869 43.9982H2.91118C1.49003 43.9982 0.374905 43.0943 0.0608748 41.6783C0.0192839 41.4784 -0.000596186 41.2743 0.0015943 41.0699C-0.000274926 35.4702 -0.000274926 29.8713 0.0015943 24.273C0.0015943 20.7291 0.000389135 17.1854 -0.00201416 13.6418C-0.00201416 11.013 -0.00201416 8.38428 -0.00201416 5.75573C-0.00201416 4.34135 1.11192 3.06381 2.49341 2.95114C3.20318 2.89295 3.91936 2.92041 4.63274 2.91016C4.70564 2.91016 4.77814 2.91016 4.84584 2.91016C4.89951 2.64753 4.93315 2.39186 5.00405 2.14725C5.36935 0.88815 6.52253 -0.000141936 7.79307 -0.000141936C13.0998 -0.000141936 18.4066 -0.000141936 23.7133 -0.000141936C26.5636 -0.000141936 29.4139 -0.00123275 32.2642 -0.00341797C33.6165 -0.00341797 34.6715 0.863565 34.9479 2.21321C34.9835 2.4077 34.9994 2.6054 34.9956 2.80322C34.9972 8.2996 34.9972 13.7961 34.9956 19.2928C34.9956 24.8714 34.9964 30.45 34.998 36.0286C34.998 37.5286 34.0523 38.7393 32.6283 39.0565C32.4389 39.0939 32.2468 39.1154 32.0539 39.1208C31.8445 39.1347 31.6306 39.1265 31.4011 39.1265ZM30.1193 23.4626V22.889C30.1193 17.2287 30.1193 11.5684 30.1193 5.90815C30.1193 5.60864 30.0792 5.32388 29.935 5.06288C29.6146 4.47697 29.1071 4.22294 28.4634 4.22294H2.89276C2.58033 4.22294 2.28352 4.29054 2.01835 4.46427C1.51647 4.79205 1.27854 5.27062 1.27814 5.87374C1.27814 8.05158 1.27814 10.2293 1.27814 12.4069C1.276 19.9172 1.27374 27.4277 1.27133 34.9383C1.27133 36.946 1.27734 38.9536 1.27814 40.9592C1.27814 42.0245 1.91902 42.6846 2.95844 42.685H7.34366C14.3853 42.685 21.4271 42.6865 28.469 42.6895C29.4976 42.6895 30.1289 41.8734 30.1261 40.9953C30.1121 35.1517 30.1205 29.307 30.1209 23.4626H30.1193ZM6.17125 2.91139H6.32546C9.17604 2.91139 12.0265 2.91262 14.8768 2.91508C18.835 2.91508 22.7934 2.91508 26.7519 2.91508C27.4785 2.91508 28.2083 2.89746 28.9313 2.95605C30.2911 3.06709 31.3978 4.3393 31.3982 5.73811C31.3982 16.3364 31.3982 26.9339 31.3982 37.5306V37.8174C31.5985 37.8174 31.7647 37.8097 31.931 37.8174C32.835 37.8662 33.7182 37.1586 33.717 35.9954C33.7109 30.7306 33.7099 25.466 33.7142 20.2016C33.7142 14.4107 33.7142 8.61987 33.7142 2.82904C33.7142 1.89772 33.137 1.31304 32.2258 1.31304C24.1285 1.31304 16.0314 1.31304 7.93446 1.31304C7.78802 1.31287 7.64182 1.32548 7.49747 1.35074C6.78569 1.47898 6.18607 2.17634 6.17285 2.91139H6.17125Z" fill="white"/>
<path id="Vector_4" d="M15.9595 25.8511C19.6512 25.8511 23.3428 25.8511 27.0343 25.8511C27.3187 25.8511 27.5229 25.9695 27.6483 26.2235C27.7737 26.4775 27.724 26.7152 27.5522 26.9274C27.4112 27.1007 27.2217 27.1659 27.0014 27.1655C25.0254 27.163 23.0493 27.163 21.0733 27.1655H4.954C4.46613 27.1655 4.16932 26.8377 4.24302 26.378C4.26814 26.2399 4.33687 26.114 4.43868 26.0197C4.54049 25.9254 4.66975 25.8679 4.8066 25.856C4.85987 25.8523 4.91314 25.856 4.96682 25.856L15.9595 25.8511Z" fill="white"/>
<path id="Vector_5" d="M15.9587 36.9906H26.9898C27.3435 36.9906 27.579 37.136 27.6735 37.4089C27.8265 37.8506 27.5257 38.2853 27.0507 38.3001C26.7907 38.3079 26.53 38.3001 26.2704 38.3001C22.3998 38.3001 18.5294 38.2989 14.6593 38.2964C11.4295 38.2964 8.19989 38.2979 4.97039 38.3009C4.6832 38.3009 4.44127 38.2149 4.30188 37.9428C4.2459 37.8409 4.21886 37.725 4.22381 37.6083C4.22877 37.4915 4.26551 37.3785 4.32992 37.2819C4.45849 37.077 4.64796 36.9861 4.88789 36.9873C5.80234 36.9906 6.71639 36.9873 7.63045 36.9873L15.9587 36.9906Z" fill="white"/>
<path id="Vector_6" d="M13.8562 31.5C16.8267 31.5 19.7973 31.5 22.768 31.5C23.2383 31.5 23.501 31.7676 23.4746 32.2097C23.4662 32.3398 23.4184 32.4639 23.3379 32.565C23.2573 32.666 23.148 32.7389 23.0252 32.7735C22.9215 32.7983 22.8152 32.8099 22.7087 32.8079C20.8598 32.8101 19.0107 32.8101 17.1615 32.8079C16.4834 32.8079 15.8053 32.7882 15.1271 32.7895C13.42 32.7923 11.7129 32.8046 10.0057 32.8079C8.32342 32.8116 6.64112 32.8079 4.95881 32.8079C4.67482 32.8079 4.43809 32.726 4.30391 32.4391C4.10043 32.0036 4.35077 31.5377 4.82462 31.5054C5.0305 31.4906 5.23799 31.5 5.44507 31.5H13.8566H13.8562Z" fill="white"/>
<path id="Vector_7" d="M9.57031 29.9492H4.92594C4.51338 29.9492 4.22858 29.6858 4.22818 29.3055C4.22818 28.9077 4.50857 28.6401 4.93075 28.6401C8.03367 28.6401 11.1365 28.6401 14.2391 28.6401C14.6397 28.6401 14.9345 28.9216 14.9329 29.2986C14.9313 29.6755 14.6393 29.9488 14.2347 29.9492H9.57031Z" fill="white"/>
<path id="Vector_8" d="M7.79149 35.649C6.81054 35.649 5.82879 35.6519 4.84905 35.649C4.69768 35.6517 4.55088 35.5961 4.43768 35.4933C4.32448 35.3905 4.25315 35.2479 4.23782 35.0938C4.19776 34.7353 4.3792 34.4522 4.71086 34.3727C4.82811 34.3481 4.94769 34.337 5.06735 34.3395C6.40252 34.3373 7.73688 34.3373 9.07044 34.3395C9.61078 34.3395 10.1519 34.3358 10.6919 34.3395C11.0311 34.3432 11.2879 34.5669 11.3404 34.8882C11.3928 35.2094 11.229 35.5134 10.9286 35.6163C10.8393 35.6421 10.7466 35.6534 10.6538 35.6499C9.69971 35.6523 8.7456 35.6523 7.79149 35.6499V35.649Z" fill="white"/>
</g>
</g>
</g>
<defs>
<clipPath id="clip0_1_834">
<rect width="35" height="44" fill="white"/>
</clipPath>
</defs>
</svg>
