<svg width="47" height="43" viewBox="0 0 47 43" fill="none" xmlns="http://www.w3.org/2000/svg">
<g id="Frame" clip-path="url(#clip0_1_857)">
<g id="By1EF3.tif">
<path id="Vector" d="M18.6416 37.7199C18.6863 38.4593 18.815 39.124 18.7493 39.7671C18.593 41.3137 17.7415 42.3868 16.3105 42.8249C14.8796 43.2631 13.6103 42.8955 12.6379 41.6745C11.2171 39.891 9.80454 38.1002 8.40032 36.3022C8.06526 35.8722 7.7184 35.7365 7.15864 35.6239C6.18629 35.4245 5.33347 35.316 4.35455 35.6388C4.0208 35.7487 3.2495 35.1939 3.01824 34.7529C2.00384 32.8143 1.09327 30.8187 0.186622 28.8163C-0.218086 27.9236 0.0433926 27.1883 0.904054 26.7122C1.36395 26.4571 1.58731 26.1885 1.70688 25.6146C1.80412 25.1466 2.27977 24.6419 2.71733 24.3937C4.07731 23.6231 5.48595 22.9339 6.90374 22.2773C7.54496 21.9802 7.80383 21.6234 7.79857 20.8528C7.76178 16.0327 7.78276 11.2126 7.79196 6.39107C7.80247 2.42426 10.1401 0.00537109 13.9782 0.00537109C22.9291 0.00537109 31.8796 0.00537109 40.8296 0.00537109C44.4772 0.00537109 46.9935 2.59655 46.9974 6.38157C47.0062 14.7186 47.0062 23.0551 46.9974 31.3912C46.9974 35.3092 44.6874 37.7091 40.8795 37.7186C33.8431 37.7362 26.8067 37.7186 19.7703 37.7186L18.6416 37.7199ZM13.9454 32.0573C14.9966 33.3705 15.8257 34.4857 16.7455 35.5195C17.0649 35.859 17.4955 36.0631 17.953 36.092C25.6057 36.1263 33.2575 36.1336 40.9084 36.1137C43.5968 36.1137 45.3404 34.3107 45.3694 31.5214C45.3877 29.7809 45.3694 28.0403 45.3694 26.2997C45.3694 19.607 45.3694 12.9115 45.3694 6.21335C45.3694 3.7402 43.9752 1.82869 41.7336 1.65097C39.3592 1.4624 36.9599 1.60892 34.5198 1.60892C34.5027 1.92908 34.479 2.18956 34.479 2.45003C34.479 4.66 34.4948 6.86996 34.4593 9.07857C34.4593 9.42858 34.2123 9.77452 34.0796 10.1232C33.7209 9.97395 33.2991 9.90069 33.0152 9.65785C32.5225 9.23865 32.1152 8.70821 31.6369 8.19404C31.1415 8.70414 30.6553 9.14369 30.2388 9.64836C29.6948 10.3023 29.227 10.3647 28.6541 9.67413C28.2402 9.17353 27.7343 8.75569 27.2232 8.25916C26.7488 8.75976 26.2587 9.24001 25.8133 9.76096C25.3324 10.3253 24.9014 10.29 24.4362 9.76096C23.9711 9.23187 23.4797 8.69735 23.075 8.24966C22.4929 8.80046 22.0382 9.28342 21.5271 9.69177C21.2485 9.91426 20.8123 10.1964 20.5626 10.1069C20.3129 10.0174 20.1684 9.49777 20.1132 9.14504C20.0396 8.62002 20.0935 8.07737 20.0935 7.5415V1.57229C17.9057 1.57229 15.8375 1.57229 13.7693 1.57229C13.4776 1.56363 13.1856 1.57542 12.8955 1.60756C10.7248 1.91552 9.20847 3.66829 9.20058 5.93931C9.1835 10.7934 9.1927 15.6474 9.20058 20.5015C9.20058 21.4389 9.48178 21.6207 10.2242 21.1391C13.5946 18.9495 16.1779 16.1087 17.2291 12.0157C17.4262 11.2505 17.8137 10.6591 18.6599 10.598C19.5061 10.537 19.9516 11.0647 20.2775 11.7851C21.0199 13.4198 21.803 15.041 22.5112 16.6839C22.753 17.2428 23.0263 17.4612 23.6439 17.4911C24.9343 17.5508 25.9381 18.2182 26.465 19.4623C26.9538 20.6181 26.8592 21.7808 26.0708 22.7643C25.7082 23.212 25.7345 23.5376 25.9565 24.007C26.766 25.7191 27.5333 27.4542 28.3362 29.1622C28.6528 29.8406 28.683 30.4483 28.1837 31.0168C27.6844 31.5852 27.0655 31.6422 26.4098 31.341C22.7399 29.6601 19.0357 29.8324 15.3263 31.1606C14.8467 31.3247 14.4473 31.7195 13.9454 32.056V32.0573ZM26.9236 29.6683L18.7086 12.2043C17.4813 17.0068 14.6352 20.1664 10.9022 22.6002C11.9074 24.7708 12.8942 26.8329 13.8166 28.9275C14.1109 29.595 14.3777 29.7863 15.1188 29.5421C17.6968 28.6915 20.3379 28.1855 23.0513 28.7064C24.3153 28.9452 25.5518 29.321 26.9236 29.6669V29.6683ZM12.0992 33.3678L9.09017 34.8601C10.6775 36.8652 12.1768 38.7835 13.7141 40.6692C13.9813 40.9603 14.3231 41.1668 14.6996 41.2648C15.4749 41.4859 16.1909 41.2987 16.706 40.6218C17.204 39.9692 17.4025 39.1756 16.9505 38.4769C16.5931 37.9248 16.0018 37.1759 15.4867 37.1528C13.0716 37.0416 12.0887 36.115 12.0992 33.3665V33.3678Z" fill="#5E3DFD"/>
<path id="Vector_2" d="M36.5013 32.4565C35.1426 32.4565 33.7853 32.466 32.4279 32.4565C31.4227 32.4483 31.0811 32.1133 31.0535 31.0917C31.0312 30.2248 31.0417 29.3552 31.0535 28.4883C31.0653 27.7259 31.4398 27.3135 32.198 27.3135H40.9268C41.6284 27.3135 42.0239 27.6703 42.0357 28.3988C42.0515 29.3661 42.0581 30.3347 42.0357 31.302C42.0187 32.0658 41.6127 32.4565 40.8637 32.4551C39.4087 32.4542 37.9546 32.4547 36.5013 32.4565Z" fill="#5E3DFD"/>
<path id="Vector_3" d="M30.5029 17.243C30.0206 17.6405 29.725 17.9973 29.3492 18.1642C28.8665 18.3661 28.3534 18.48 27.8329 18.5006C27.7501 18.5006 27.4833 17.6676 27.5569 17.6174C28.2073 17.1649 28.9007 16.7821 29.6264 16.4751C29.7631 16.4209 30.0968 16.8753 30.5029 17.243Z" fill="#5E3DFD"/>
<path id="Vector_4" d="M26.5531 13.124C26.7686 13.337 27.1982 13.607 27.1614 13.7508C26.9692 14.4929 26.7014 15.2118 26.3625 15.8956C26.3047 16.0123 25.7844 15.9445 25.5058 15.8617C25.3744 15.8251 25.2141 15.5049 25.2535 15.3747C25.4541 14.7179 25.6928 14.0741 25.9683 13.4469C26.0288 13.3099 26.285 13.2651 26.5531 13.124Z" fill="#5E3DFD"/>
<path id="Vector_5" d="M30.838 22.2233C29.4951 22.2478 28.4255 21.716 28.5385 21.1516C28.5989 20.8518 29.0431 20.4516 29.344 20.4204C30.4832 20.305 31.4463 20.8273 31.353 21.4555C31.3057 21.7824 30.9536 22.0619 30.838 22.2233Z" fill="#5E3DFD"/>
</g>
</g>
<defs>
<clipPath id="clip0_1_857">
<rect width="47" height="43" fill="white"/>
</clipPath>
</defs>
</svg>
