<svg width="41" height="43" viewBox="0 0 41 43" fill="none" xmlns="http://www.w3.org/2000/svg">
<g id="Frame" clip-path="url(#clip0_1_906)">
<g id="SDvNHT.tif">
<g id="Vector">
<mask id="path-1-outside-1_1_906" maskUnits="userSpaceOnUse" x="-1" y="-0.999512" width="43" height="45" fill="black">
<rect fill="white" x="-1" y="-0.999512" width="43" height="45"/>
<path d="M30.3175 43.0003C31.2511 42.4594 32.183 41.914 33.1197 41.378C35.6105 39.9525 38.1028 38.5298 40.5965 37.1099C40.9022 36.9341 40.9943 36.6788 40.9939 36.3444C40.9895 32.4157 40.9888 28.4869 40.9917 24.5582C40.9917 24.1777 41 23.7976 41 23.4157C41 23.1178 40.8659 22.8994 40.5974 22.7707C37.3523 21.2139 34.1063 19.6581 30.8594 18.1031C30.7179 18.0355 30.6616 17.9599 30.662 17.7955C30.6675 13.6398 30.6703 9.48432 30.6703 5.32915C30.6703 5.01585 30.5589 4.79834 30.2773 4.66255C28.344 3.72512 26.4112 2.78769 24.479 1.85026C23.2843 1.27022 22.0869 0.69502 20.8982 0.103998C20.61 -0.0392528 20.3585 -0.0278278 20.0712 0.101362C17.0645 1.46327 14.0559 2.8205 11.0454 4.17304C10.6882 4.33387 10.3279 4.48679 9.97117 4.64893C9.68515 4.77856 9.55022 4.99695 9.55065 5.32257C9.55502 9.47832 9.55705 13.6338 9.55676 17.7889C9.55676 17.9388 9.53624 18.035 9.38209 18.115C6.38937 19.6615 3.39883 21.2117 0.410473 22.7658C0.203053 22.873 0.0855865 23.0418 0 23.2461V36.5909C0.0719337 36.8125 0.221779 37 0.421391 37.1182C3.64148 39.076 6.85983 41.0365 10.0764 42.9999H10.4258C11.2572 42.5241 12.0886 42.0484 12.9201 41.5726C15.3862 40.163 17.8515 38.753 20.3162 37.3427C20.4432 37.2698 20.5406 37.2593 20.6655 37.3454C20.869 37.4851 21.0856 37.606 21.2961 37.7343L29.9245 42.9999L30.3175 43.0003ZM10.8153 6.26029C10.9096 6.29984 10.9825 6.32708 11.0533 6.36048C13.9159 7.70599 16.7787 9.05105 19.6419 10.3957C19.7982 10.4686 19.8603 10.5504 19.8603 10.734C19.8538 14.5157 19.8523 18.2975 19.8555 22.0795V22.3374C19.7734 22.3027 19.7205 22.2838 19.6707 22.2596C16.7793 20.8693 13.8873 19.4801 10.9948 18.0921C10.8419 18.0188 10.8109 17.9313 10.8109 17.7766C10.8138 14.017 10.8153 10.2571 10.8153 6.49714V6.26029ZM39.7275 24.4523C39.7314 24.5363 39.7367 24.5929 39.7367 24.6496C39.7367 28.4169 39.7384 32.1842 39.7419 35.9515C39.7419 36.1146 39.6716 36.1774 39.5493 36.2473C36.6905 37.8775 33.8327 39.5098 30.976 41.1442C30.9105 41.182 30.8419 41.2145 30.7598 41.2571C30.7555 41.189 30.7507 41.153 30.7507 41.1165C30.7507 37.2909 30.7498 33.4651 30.748 29.6393C30.748 29.5131 30.7873 29.4463 30.8982 29.3848C32.0854 28.7251 33.2709 28.062 34.4546 27.3956C34.5041 27.3721 34.5548 27.3515 34.6066 27.3336V27.5942C34.6066 28.3478 34.6044 29.101 34.6092 29.8546C34.6071 29.9784 34.6257 30.1017 34.6642 30.2193C34.7154 30.3495 34.8083 30.4587 34.9283 30.5297C35.0482 30.6006 35.1883 30.6292 35.3262 30.6108C35.6415 30.5568 35.8576 30.3142 35.859 29.9873C35.8633 28.9489 35.8664 27.9101 35.8568 26.8713C35.8568 26.6802 35.9066 26.5739 36.079 26.4789C37.231 25.8453 38.3755 25.1985 39.5227 24.556C39.5825 24.5231 39.6463 24.4936 39.7266 24.4532L39.7275 24.4523ZM14.7493 27.3086V27.5902C14.7493 28.3583 14.7493 29.1264 14.7493 29.8946C14.7493 30.1248 14.8092 30.3309 14.9969 30.4759C15.1969 30.6306 15.4205 30.664 15.652 30.5502C15.8983 30.4289 16.0105 30.2206 16.0105 29.9477C16.0105 28.9019 16.0135 27.8561 16.0074 26.8098C16.0074 26.6617 16.0454 26.5765 16.1795 26.5022C17.2533 25.9081 18.3227 25.3061 19.3939 24.7063C19.5371 24.6263 19.6812 24.5472 19.845 24.4572C19.8507 24.5376 19.8576 24.5863 19.8576 24.6329C19.8576 28.4146 19.8588 32.1961 19.8611 35.9775C19.8611 36.1176 19.8044 36.1818 19.6921 36.2455C16.8194 37.8863 13.9477 39.527 11.0773 41.1675C11.0258 41.1969 10.9699 41.2198 10.9026 41.2523C10.8974 41.1855 10.8921 41.1495 10.8921 41.1134C10.8921 37.2881 10.8911 33.4628 10.8891 29.6375C10.8891 29.5087 10.9354 29.4442 11.0437 29.3848C11.5978 29.0812 12.1476 28.7696 12.6991 28.462L14.7493 27.3086ZM1.26942 24.4835C1.35676 24.5323 1.41004 24.5578 1.45895 24.5872C4.13726 26.1835 6.81557 27.7789 9.49388 29.3734C9.62838 29.4529 9.64105 29.5465 9.64105 29.6762C9.64105 33.4505 9.64105 37.2247 9.64105 40.9987C9.64105 41.0673 9.63406 41.1354 9.62882 41.2285C9.54148 41.1793 9.4786 41.1459 9.4179 41.109C6.76171 39.4917 4.1048 37.875 1.44715 36.2591C1.30785 36.1743 1.26942 36.0834 1.26986 35.9269C1.27394 32.1968 1.27496 28.4667 1.27292 24.7366L1.26942 24.4835ZM29.4904 41.2294C29.4087 41.1855 29.3524 41.1574 29.2987 41.1244C26.6495 39.5111 23.9993 37.8986 21.348 36.2868C21.2026 36.1989 21.1419 36.1058 21.1424 35.9282C21.1482 32.2058 21.1496 28.4833 21.1467 24.7608V24.4971C21.2367 24.545 21.2939 24.5719 21.3476 24.6039C23.9997 26.1858 26.6521 27.766 29.3048 29.3444C29.4511 29.4323 29.4939 29.5237 29.4939 29.688C29.4892 33.4545 29.4881 37.2207 29.4904 40.9869V41.2294ZM21.1148 22.3172V22.1445C21.1148 18.3198 21.1138 14.4952 21.1118 10.6708C21.1118 10.5345 21.1528 10.4651 21.2738 10.4045C22.3445 9.86794 23.4113 9.32393 24.4803 8.78301C24.5338 8.75955 24.5885 8.73901 24.6441 8.72149V9.02908C24.6441 9.68821 24.6402 10.3473 24.6472 11.0034C24.6514 11.1509 24.7073 11.2921 24.8049 11.4021C24.9026 11.5122 25.0357 11.584 25.1808 11.605C25.4502 11.6489 25.7524 11.4784 25.8424 11.2139C25.881 11.0885 25.8992 10.9576 25.8965 10.8263C25.9013 9.98526 25.9031 9.14421 25.8965 8.3036C25.8965 8.13047 25.938 8.03335 26.1044 7.95206C27.1384 7.43969 28.1655 6.91195 29.1948 6.38992C29.2576 6.35784 29.3223 6.33104 29.4131 6.29061V6.51032C29.4131 10.2767 29.4143 14.0429 29.4166 17.8087C29.4166 17.9621 29.3672 18.0385 29.2328 18.108C27.0453 19.2382 24.8598 20.3716 22.6764 21.5082C22.1659 21.7749 21.659 22.0368 21.114 22.3194L21.1148 22.3172ZM1.95196 23.4056C2.02794 23.3617 2.08297 23.3274 2.1393 23.2975C3.18166 22.7548 4.22576 22.2144 5.26637 21.6677C5.32005 21.6345 5.38191 21.6172 5.44491 21.6176C5.50791 21.6181 5.56952 21.6364 5.62271 21.6704C8.21922 23.0788 10.8173 24.485 13.417 25.8888C13.6262 26.0022 13.8341 26.1186 14.0528 26.2403C14.0175 26.2663 14.0017 26.2808 13.9838 26.2909C12.7869 26.9623 11.5886 27.6311 10.3952 28.3078C10.2738 28.3764 10.1965 28.3342 10.1009 28.2771C7.80625 26.9066 5.5112 25.537 3.21571 24.168C2.79781 23.918 2.38253 23.6671 1.95065 23.4078L1.95196 23.4056ZM33.9118 26.2381C33.8607 26.2724 33.8327 26.2944 33.8022 26.3115C32.6231 26.9707 31.4441 27.6298 30.2699 28.2942C30.1463 28.3641 30.0642 28.3381 29.9568 28.2727C27.6817 26.9128 25.4057 25.5544 23.1288 24.1975C22.6921 23.9378 22.2589 23.6763 21.8044 23.4039C22.9585 22.8036 24.0869 22.2139 25.2205 21.6343C25.283 21.6022 25.4009 21.6343 25.4734 21.6739C28.0803 23.0783 30.6859 24.4856 33.29 25.8958C33.4913 26.0074 33.6926 26.1204 33.9109 26.2403L33.9118 26.2381ZM38.9812 23.4056C38.8782 23.4663 38.8066 23.5106 38.7301 23.5524C37.6341 24.1676 36.5358 24.7775 35.4432 25.398C35.2838 25.4889 35.1642 25.4858 35.0065 25.398C32.7416 24.1676 30.4747 22.94 28.2057 21.7152L26.6734 20.8855C26.7677 20.8306 26.8332 20.7884 26.9017 20.7537C27.879 20.2457 28.8594 19.743 29.8332 19.2272C29.9017 19.185 29.9801 19.1619 30.0604 19.1604C30.1407 19.1588 30.2199 19.1788 30.29 19.2184C32.5898 20.3316 34.8911 21.4401 37.1939 22.5439L38.9812 23.4056ZM6.80523 20.8807C6.91702 20.8192 6.98558 20.7796 7.05545 20.7432C8.03405 20.2339 9.01528 19.7285 9.98996 19.2118C10.1358 19.134 10.2472 19.1415 10.3882 19.2092C12.9501 20.4457 15.5119 21.6799 18.0738 22.9117C18.4087 23.073 18.7424 23.2365 19.1031 23.4113C19.0131 23.468 18.9546 23.5085 18.893 23.5432C17.7904 24.161 16.686 24.7735 15.5869 25.3984C15.4301 25.4863 15.3105 25.4863 15.1502 25.3984C13.014 24.236 10.8753 23.078 8.73406 21.9243C8.10437 21.5855 7.47423 21.2432 6.80611 20.8807H6.80523ZM11.7026 5.26676C11.8083 5.21754 11.8773 5.18327 11.9511 5.15075C13.1148 4.62652 14.2799 4.10581 15.4406 3.57411C15.5093 3.53776 15.5862 3.51977 15.6638 3.52185C15.7414 3.52392 15.8171 3.546 15.8838 3.58597C18.4335 4.89545 20.9852 6.20155 23.5389 7.50429C23.6411 7.55614 23.7406 7.61195 23.8638 7.68006C22.7563 8.24164 21.6777 8.79223 20.593 9.33052C20.5153 9.36919 20.3812 9.34547 20.2943 9.30504C18.8804 8.64679 17.4684 7.98428 16.0585 7.31754L11.7026 5.26676ZM17.1415 2.81391C18.2485 2.31429 19.3175 1.82829 20.3921 1.35459C20.4642 1.32295 20.5865 1.36689 20.6703 1.40732C23.0735 2.57003 25.4753 3.73537 27.8755 4.90336C28.1135 5.01892 28.3498 5.13713 28.6092 5.265C28.5428 5.30059 28.5052 5.32213 28.4668 5.34146C27.4581 5.85383 26.4476 6.36311 25.441 6.87943C25.3869 6.91203 25.3249 6.92924 25.2618 6.92924C25.1987 6.92924 25.1367 6.91203 25.0825 6.87943C23.1271 5.87404 21.1699 4.8723 19.2109 3.87423C18.5332 3.52841 17.8559 3.18039 17.1415 2.81435V2.81391Z"/>
</mask>
<path d="M30.3175 43.0003C31.2511 42.4594 32.183 41.914 33.1197 41.378C35.6105 39.9525 38.1028 38.5298 40.5965 37.1099C40.9022 36.9341 40.9943 36.6788 40.9939 36.3444C40.9895 32.4157 40.9888 28.4869 40.9917 24.5582C40.9917 24.1777 41 23.7976 41 23.4157C41 23.1178 40.8659 22.8994 40.5974 22.7707C37.3523 21.2139 34.1063 19.6581 30.8594 18.1031C30.7179 18.0355 30.6616 17.9599 30.662 17.7955C30.6675 13.6398 30.6703 9.48432 30.6703 5.32915C30.6703 5.01585 30.5589 4.79834 30.2773 4.66255C28.344 3.72512 26.4112 2.78769 24.479 1.85026C23.2843 1.27022 22.0869 0.69502 20.8982 0.103998C20.61 -0.0392528 20.3585 -0.0278278 20.0712 0.101362C17.0645 1.46327 14.0559 2.8205 11.0454 4.17304C10.6882 4.33387 10.3279 4.48679 9.97117 4.64893C9.68515 4.77856 9.55022 4.99695 9.55065 5.32257C9.55502 9.47832 9.55705 13.6338 9.55676 17.7889C9.55676 17.9388 9.53624 18.035 9.38209 18.115C6.38937 19.6615 3.39883 21.2117 0.410473 22.7658C0.203053 22.873 0.0855865 23.0418 0 23.2461V36.5909C0.0719337 36.8125 0.221779 37 0.421391 37.1182C3.64148 39.076 6.85983 41.0365 10.0764 42.9999H10.4258C11.2572 42.5241 12.0886 42.0484 12.9201 41.5726C15.3862 40.163 17.8515 38.753 20.3162 37.3427C20.4432 37.2698 20.5406 37.2593 20.6655 37.3454C20.869 37.4851 21.0856 37.606 21.2961 37.7343L29.9245 42.9999L30.3175 43.0003ZM10.8153 6.26029C10.9096 6.29984 10.9825 6.32708 11.0533 6.36048C13.9159 7.70599 16.7787 9.05105 19.6419 10.3957C19.7982 10.4686 19.8603 10.5504 19.8603 10.734C19.8538 14.5157 19.8523 18.2975 19.8555 22.0795V22.3374C19.7734 22.3027 19.7205 22.2838 19.6707 22.2596C16.7793 20.8693 13.8873 19.4801 10.9948 18.0921C10.8419 18.0188 10.8109 17.9313 10.8109 17.7766C10.8138 14.017 10.8153 10.2571 10.8153 6.49714V6.26029ZM39.7275 24.4523C39.7314 24.5363 39.7367 24.5929 39.7367 24.6496C39.7367 28.4169 39.7384 32.1842 39.7419 35.9515C39.7419 36.1146 39.6716 36.1774 39.5493 36.2473C36.6905 37.8775 33.8327 39.5098 30.976 41.1442C30.9105 41.182 30.8419 41.2145 30.7598 41.2571C30.7555 41.189 30.7507 41.153 30.7507 41.1165C30.7507 37.2909 30.7498 33.4651 30.748 29.6393C30.748 29.5131 30.7873 29.4463 30.8982 29.3848C32.0854 28.7251 33.2709 28.062 34.4546 27.3956C34.5041 27.3721 34.5548 27.3515 34.6066 27.3336V27.5942C34.6066 28.3478 34.6044 29.101 34.6092 29.8546C34.6071 29.9784 34.6257 30.1017 34.6642 30.2193C34.7154 30.3495 34.8083 30.4587 34.9283 30.5297C35.0482 30.6006 35.1883 30.6292 35.3262 30.6108C35.6415 30.5568 35.8576 30.3142 35.859 29.9873C35.8633 28.9489 35.8664 27.9101 35.8568 26.8713C35.8568 26.6802 35.9066 26.5739 36.079 26.4789C37.231 25.8453 38.3755 25.1985 39.5227 24.556C39.5825 24.5231 39.6463 24.4936 39.7266 24.4532L39.7275 24.4523ZM14.7493 27.3086V27.5902C14.7493 28.3583 14.7493 29.1264 14.7493 29.8946C14.7493 30.1248 14.8092 30.3309 14.9969 30.4759C15.1969 30.6306 15.4205 30.664 15.652 30.5502C15.8983 30.4289 16.0105 30.2206 16.0105 29.9477C16.0105 28.9019 16.0135 27.8561 16.0074 26.8098C16.0074 26.6617 16.0454 26.5765 16.1795 26.5022C17.2533 25.9081 18.3227 25.3061 19.3939 24.7063C19.5371 24.6263 19.6812 24.5472 19.845 24.4572C19.8507 24.5376 19.8576 24.5863 19.8576 24.6329C19.8576 28.4146 19.8588 32.1961 19.8611 35.9775C19.8611 36.1176 19.8044 36.1818 19.6921 36.2455C16.8194 37.8863 13.9477 39.527 11.0773 41.1675C11.0258 41.1969 10.9699 41.2198 10.9026 41.2523C10.8974 41.1855 10.8921 41.1495 10.8921 41.1134C10.8921 37.2881 10.8911 33.4628 10.8891 29.6375C10.8891 29.5087 10.9354 29.4442 11.0437 29.3848C11.5978 29.0812 12.1476 28.7696 12.6991 28.462L14.7493 27.3086ZM1.26942 24.4835C1.35676 24.5323 1.41004 24.5578 1.45895 24.5872C4.13726 26.1835 6.81557 27.7789 9.49388 29.3734C9.62838 29.4529 9.64105 29.5465 9.64105 29.6762C9.64105 33.4505 9.64105 37.2247 9.64105 40.9987C9.64105 41.0673 9.63406 41.1354 9.62882 41.2285C9.54148 41.1793 9.4786 41.1459 9.4179 41.109C6.76171 39.4917 4.1048 37.875 1.44715 36.2591C1.30785 36.1743 1.26942 36.0834 1.26986 35.9269C1.27394 32.1968 1.27496 28.4667 1.27292 24.7366L1.26942 24.4835ZM29.4904 41.2294C29.4087 41.1855 29.3524 41.1574 29.2987 41.1244C26.6495 39.5111 23.9993 37.8986 21.348 36.2868C21.2026 36.1989 21.1419 36.1058 21.1424 35.9282C21.1482 32.2058 21.1496 28.4833 21.1467 24.7608V24.4971C21.2367 24.545 21.2939 24.5719 21.3476 24.6039C23.9997 26.1858 26.6521 27.766 29.3048 29.3444C29.4511 29.4323 29.4939 29.5237 29.4939 29.688C29.4892 33.4545 29.4881 37.2207 29.4904 40.9869V41.2294ZM21.1148 22.3172V22.1445C21.1148 18.3198 21.1138 14.4952 21.1118 10.6708C21.1118 10.5345 21.1528 10.4651 21.2738 10.4045C22.3445 9.86794 23.4113 9.32393 24.4803 8.78301C24.5338 8.75955 24.5885 8.73901 24.6441 8.72149V9.02908C24.6441 9.68821 24.6402 10.3473 24.6472 11.0034C24.6514 11.1509 24.7073 11.2921 24.8049 11.4021C24.9026 11.5122 25.0357 11.584 25.1808 11.605C25.4502 11.6489 25.7524 11.4784 25.8424 11.2139C25.881 11.0885 25.8992 10.9576 25.8965 10.8263C25.9013 9.98526 25.9031 9.14421 25.8965 8.3036C25.8965 8.13047 25.938 8.03335 26.1044 7.95206C27.1384 7.43969 28.1655 6.91195 29.1948 6.38992C29.2576 6.35784 29.3223 6.33104 29.4131 6.29061V6.51032C29.4131 10.2767 29.4143 14.0429 29.4166 17.8087C29.4166 17.9621 29.3672 18.0385 29.2328 18.108C27.0453 19.2382 24.8598 20.3716 22.6764 21.5082C22.1659 21.7749 21.659 22.0368 21.114 22.3194L21.1148 22.3172ZM1.95196 23.4056C2.02794 23.3617 2.08297 23.3274 2.1393 23.2975C3.18166 22.7548 4.22576 22.2144 5.26637 21.6677C5.32005 21.6345 5.38191 21.6172 5.44491 21.6176C5.50791 21.6181 5.56952 21.6364 5.62271 21.6704C8.21922 23.0788 10.8173 24.485 13.417 25.8888C13.6262 26.0022 13.8341 26.1186 14.0528 26.2403C14.0175 26.2663 14.0017 26.2808 13.9838 26.2909C12.7869 26.9623 11.5886 27.6311 10.3952 28.3078C10.2738 28.3764 10.1965 28.3342 10.1009 28.2771C7.80625 26.9066 5.5112 25.537 3.21571 24.168C2.79781 23.918 2.38253 23.6671 1.95065 23.4078L1.95196 23.4056ZM33.9118 26.2381C33.8607 26.2724 33.8327 26.2944 33.8022 26.3115C32.6231 26.9707 31.4441 27.6298 30.2699 28.2942C30.1463 28.3641 30.0642 28.3381 29.9568 28.2727C27.6817 26.9128 25.4057 25.5544 23.1288 24.1975C22.6921 23.9378 22.2589 23.6763 21.8044 23.4039C22.9585 22.8036 24.0869 22.2139 25.2205 21.6343C25.283 21.6022 25.4009 21.6343 25.4734 21.6739C28.0803 23.0783 30.6859 24.4856 33.29 25.8958C33.4913 26.0074 33.6926 26.1204 33.9109 26.2403L33.9118 26.2381ZM38.9812 23.4056C38.8782 23.4663 38.8066 23.5106 38.7301 23.5524C37.6341 24.1676 36.5358 24.7775 35.4432 25.398C35.2838 25.4889 35.1642 25.4858 35.0065 25.398C32.7416 24.1676 30.4747 22.94 28.2057 21.7152L26.6734 20.8855C26.7677 20.8306 26.8332 20.7884 26.9017 20.7537C27.879 20.2457 28.8594 19.743 29.8332 19.2272C29.9017 19.185 29.9801 19.1619 30.0604 19.1604C30.1407 19.1588 30.2199 19.1788 30.29 19.2184C32.5898 20.3316 34.8911 21.4401 37.1939 22.5439L38.9812 23.4056ZM6.80523 20.8807C6.91702 20.8192 6.98558 20.7796 7.05545 20.7432C8.03405 20.2339 9.01528 19.7285 9.98996 19.2118C10.1358 19.134 10.2472 19.1415 10.3882 19.2092C12.9501 20.4457 15.5119 21.6799 18.0738 22.9117C18.4087 23.073 18.7424 23.2365 19.1031 23.4113C19.0131 23.468 18.9546 23.5085 18.893 23.5432C17.7904 24.161 16.686 24.7735 15.5869 25.3984C15.4301 25.4863 15.3105 25.4863 15.1502 25.3984C13.014 24.236 10.8753 23.078 8.73406 21.9243C8.10437 21.5855 7.47423 21.2432 6.80611 20.8807H6.80523ZM11.7026 5.26676C11.8083 5.21754 11.8773 5.18327 11.9511 5.15075C13.1148 4.62652 14.2799 4.10581 15.4406 3.57411C15.5093 3.53776 15.5862 3.51977 15.6638 3.52185C15.7414 3.52392 15.8171 3.546 15.8838 3.58597C18.4335 4.89545 20.9852 6.20155 23.5389 7.50429C23.6411 7.55614 23.7406 7.61195 23.8638 7.68006C22.7563 8.24164 21.6777 8.79223 20.593 9.33052C20.5153 9.36919 20.3812 9.34547 20.2943 9.30504C18.8804 8.64679 17.4684 7.98428 16.0585 7.31754L11.7026 5.26676ZM17.1415 2.81391C18.2485 2.31429 19.3175 1.82829 20.3921 1.35459C20.4642 1.32295 20.5865 1.36689 20.6703 1.40732C23.0735 2.57003 25.4753 3.73537 27.8755 4.90336C28.1135 5.01892 28.3498 5.13713 28.6092 5.265C28.5428 5.30059 28.5052 5.32213 28.4668 5.34146C27.4581 5.85383 26.4476 6.36311 25.441 6.87943C25.3869 6.91203 25.3249 6.92924 25.2618 6.92924C25.1987 6.92924 25.1367 6.91203 25.0825 6.87943C23.1271 5.87404 21.1699 4.8723 19.2109 3.87423C18.5332 3.52841 17.8559 3.18039 17.1415 2.81435V2.81391Z" fill="#5E3DFD"/>
<path d="M30.3175 43.0003C31.2511 42.4594 32.183 41.914 33.1197 41.378C35.6105 39.9525 38.1028 38.5298 40.5965 37.1099C40.9022 36.9341 40.9943 36.6788 40.9939 36.3444C40.9895 32.4157 40.9888 28.4869 40.9917 24.5582C40.9917 24.1777 41 23.7976 41 23.4157C41 23.1178 40.8659 22.8994 40.5974 22.7707C37.3523 21.2139 34.1063 19.6581 30.8594 18.1031C30.7179 18.0355 30.6616 17.9599 30.662 17.7955C30.6675 13.6398 30.6703 9.48432 30.6703 5.32915C30.6703 5.01585 30.5589 4.79834 30.2773 4.66255C28.344 3.72512 26.4112 2.78769 24.479 1.85026C23.2843 1.27022 22.0869 0.69502 20.8982 0.103998C20.61 -0.0392528 20.3585 -0.0278278 20.0712 0.101362C17.0645 1.46327 14.0559 2.8205 11.0454 4.17304C10.6882 4.33387 10.3279 4.48679 9.97117 4.64893C9.68515 4.77856 9.55022 4.99695 9.55065 5.32257C9.55502 9.47832 9.55705 13.6338 9.55676 17.7889C9.55676 17.9388 9.53624 18.035 9.38209 18.115C6.38937 19.6615 3.39883 21.2117 0.410473 22.7658C0.203053 22.873 0.0855865 23.0418 0 23.2461V36.5909C0.0719337 36.8125 0.221779 37 0.421391 37.1182C3.64148 39.076 6.85983 41.0365 10.0764 42.9999H10.4258C11.2572 42.5241 12.0886 42.0484 12.9201 41.5726C15.3862 40.163 17.8515 38.753 20.3162 37.3427C20.4432 37.2698 20.5406 37.2593 20.6655 37.3454C20.869 37.4851 21.0856 37.606 21.2961 37.7343L29.9245 42.9999L30.3175 43.0003ZM10.8153 6.26029C10.9096 6.29984 10.9825 6.32708 11.0533 6.36048C13.9159 7.70599 16.7787 9.05105 19.6419 10.3957C19.7982 10.4686 19.8603 10.5504 19.8603 10.734C19.8538 14.5157 19.8523 18.2975 19.8555 22.0795V22.3374C19.7734 22.3027 19.7205 22.2838 19.6707 22.2596C16.7793 20.8693 13.8873 19.4801 10.9948 18.0921C10.8419 18.0188 10.8109 17.9313 10.8109 17.7766C10.8138 14.017 10.8153 10.2571 10.8153 6.49714V6.26029ZM39.7275 24.4523C39.7314 24.5363 39.7367 24.5929 39.7367 24.6496C39.7367 28.4169 39.7384 32.1842 39.7419 35.9515C39.7419 36.1146 39.6716 36.1774 39.5493 36.2473C36.6905 37.8775 33.8327 39.5098 30.976 41.1442C30.9105 41.182 30.8419 41.2145 30.7598 41.2571C30.7555 41.189 30.7507 41.153 30.7507 41.1165C30.7507 37.2909 30.7498 33.4651 30.748 29.6393C30.748 29.5131 30.7873 29.4463 30.8982 29.3848C32.0854 28.7251 33.2709 28.062 34.4546 27.3956C34.5041 27.3721 34.5548 27.3515 34.6066 27.3336V27.5942C34.6066 28.3478 34.6044 29.101 34.6092 29.8546C34.6071 29.9784 34.6257 30.1017 34.6642 30.2193C34.7154 30.3495 34.8083 30.4587 34.9283 30.5297C35.0482 30.6006 35.1883 30.6292 35.3262 30.6108C35.6415 30.5568 35.8576 30.3142 35.859 29.9873C35.8633 28.9489 35.8664 27.9101 35.8568 26.8713C35.8568 26.6802 35.9066 26.5739 36.079 26.4789C37.231 25.8453 38.3755 25.1985 39.5227 24.556C39.5825 24.5231 39.6463 24.4936 39.7266 24.4532L39.7275 24.4523ZM14.7493 27.3086V27.5902C14.7493 28.3583 14.7493 29.1264 14.7493 29.8946C14.7493 30.1248 14.8092 30.3309 14.9969 30.4759C15.1969 30.6306 15.4205 30.664 15.652 30.5502C15.8983 30.4289 16.0105 30.2206 16.0105 29.9477C16.0105 28.9019 16.0135 27.8561 16.0074 26.8098C16.0074 26.6617 16.0454 26.5765 16.1795 26.5022C17.2533 25.9081 18.3227 25.3061 19.3939 24.7063C19.5371 24.6263 19.6812 24.5472 19.845 24.4572C19.8507 24.5376 19.8576 24.5863 19.8576 24.6329C19.8576 28.4146 19.8588 32.1961 19.8611 35.9775C19.8611 36.1176 19.8044 36.1818 19.6921 36.2455C16.8194 37.8863 13.9477 39.527 11.0773 41.1675C11.0258 41.1969 10.9699 41.2198 10.9026 41.2523C10.8974 41.1855 10.8921 41.1495 10.8921 41.1134C10.8921 37.2881 10.8911 33.4628 10.8891 29.6375C10.8891 29.5087 10.9354 29.4442 11.0437 29.3848C11.5978 29.0812 12.1476 28.7696 12.6991 28.462L14.7493 27.3086ZM1.26942 24.4835C1.35676 24.5323 1.41004 24.5578 1.45895 24.5872C4.13726 26.1835 6.81557 27.7789 9.49388 29.3734C9.62838 29.4529 9.64105 29.5465 9.64105 29.6762C9.64105 33.4505 9.64105 37.2247 9.64105 40.9987C9.64105 41.0673 9.63406 41.1354 9.62882 41.2285C9.54148 41.1793 9.4786 41.1459 9.4179 41.109C6.76171 39.4917 4.1048 37.875 1.44715 36.2591C1.30785 36.1743 1.26942 36.0834 1.26986 35.9269C1.27394 32.1968 1.27496 28.4667 1.27292 24.7366L1.26942 24.4835ZM29.4904 41.2294C29.4087 41.1855 29.3524 41.1574 29.2987 41.1244C26.6495 39.5111 23.9993 37.8986 21.348 36.2868C21.2026 36.1989 21.1419 36.1058 21.1424 35.9282C21.1482 32.2058 21.1496 28.4833 21.1467 24.7608V24.4971C21.2367 24.545 21.2939 24.5719 21.3476 24.6039C23.9997 26.1858 26.6521 27.766 29.3048 29.3444C29.4511 29.4323 29.4939 29.5237 29.4939 29.688C29.4892 33.4545 29.4881 37.2207 29.4904 40.9869V41.2294ZM21.1148 22.3172V22.1445C21.1148 18.3198 21.1138 14.4952 21.1118 10.6708C21.1118 10.5345 21.1528 10.4651 21.2738 10.4045C22.3445 9.86794 23.4113 9.32393 24.4803 8.78301C24.5338 8.75955 24.5885 8.73901 24.6441 8.72149V9.02908C24.6441 9.68821 24.6402 10.3473 24.6472 11.0034C24.6514 11.1509 24.7073 11.2921 24.8049 11.4021C24.9026 11.5122 25.0357 11.584 25.1808 11.605C25.4502 11.6489 25.7524 11.4784 25.8424 11.2139C25.881 11.0885 25.8992 10.9576 25.8965 10.8263C25.9013 9.98526 25.9031 9.14421 25.8965 8.3036C25.8965 8.13047 25.938 8.03335 26.1044 7.95206C27.1384 7.43969 28.1655 6.91195 29.1948 6.38992C29.2576 6.35784 29.3223 6.33104 29.4131 6.29061V6.51032C29.4131 10.2767 29.4143 14.0429 29.4166 17.8087C29.4166 17.9621 29.3672 18.0385 29.2328 18.108C27.0453 19.2382 24.8598 20.3716 22.6764 21.5082C22.1659 21.7749 21.659 22.0368 21.114 22.3194L21.1148 22.3172ZM1.95196 23.4056C2.02794 23.3617 2.08297 23.3274 2.1393 23.2975C3.18166 22.7548 4.22576 22.2144 5.26637 21.6677C5.32005 21.6345 5.38191 21.6172 5.44491 21.6176C5.50791 21.6181 5.56952 21.6364 5.62271 21.6704C8.21922 23.0788 10.8173 24.485 13.417 25.8888C13.6262 26.0022 13.8341 26.1186 14.0528 26.2403C14.0175 26.2663 14.0017 26.2808 13.9838 26.2909C12.7869 26.9623 11.5886 27.6311 10.3952 28.3078C10.2738 28.3764 10.1965 28.3342 10.1009 28.2771C7.80625 26.9066 5.5112 25.537 3.21571 24.168C2.79781 23.918 2.38253 23.6671 1.95065 23.4078L1.95196 23.4056ZM33.9118 26.2381C33.8607 26.2724 33.8327 26.2944 33.8022 26.3115C32.6231 26.9707 31.4441 27.6298 30.2699 28.2942C30.1463 28.3641 30.0642 28.3381 29.9568 28.2727C27.6817 26.9128 25.4057 25.5544 23.1288 24.1975C22.6921 23.9378 22.2589 23.6763 21.8044 23.4039C22.9585 22.8036 24.0869 22.2139 25.2205 21.6343C25.283 21.6022 25.4009 21.6343 25.4734 21.6739C28.0803 23.0783 30.6859 24.4856 33.29 25.8958C33.4913 26.0074 33.6926 26.1204 33.9109 26.2403L33.9118 26.2381ZM38.9812 23.4056C38.8782 23.4663 38.8066 23.5106 38.7301 23.5524C37.6341 24.1676 36.5358 24.7775 35.4432 25.398C35.2838 25.4889 35.1642 25.4858 35.0065 25.398C32.7416 24.1676 30.4747 22.94 28.2057 21.7152L26.6734 20.8855C26.7677 20.8306 26.8332 20.7884 26.9017 20.7537C27.879 20.2457 28.8594 19.743 29.8332 19.2272C29.9017 19.185 29.9801 19.1619 30.0604 19.1604C30.1407 19.1588 30.2199 19.1788 30.29 19.2184C32.5898 20.3316 34.8911 21.4401 37.1939 22.5439L38.9812 23.4056ZM6.80523 20.8807C6.91702 20.8192 6.98558 20.7796 7.05545 20.7432C8.03405 20.2339 9.01528 19.7285 9.98996 19.2118C10.1358 19.134 10.2472 19.1415 10.3882 19.2092C12.9501 20.4457 15.5119 21.6799 18.0738 22.9117C18.4087 23.073 18.7424 23.2365 19.1031 23.4113C19.0131 23.468 18.9546 23.5085 18.893 23.5432C17.7904 24.161 16.686 24.7735 15.5869 25.3984C15.4301 25.4863 15.3105 25.4863 15.1502 25.3984C13.014 24.236 10.8753 23.078 8.73406 21.9243C8.10437 21.5855 7.47423 21.2432 6.80611 20.8807H6.80523ZM11.7026 5.26676C11.8083 5.21754 11.8773 5.18327 11.9511 5.15075C13.1148 4.62652 14.2799 4.10581 15.4406 3.57411C15.5093 3.53776 15.5862 3.51977 15.6638 3.52185C15.7414 3.52392 15.8171 3.546 15.8838 3.58597C18.4335 4.89545 20.9852 6.20155 23.5389 7.50429C23.6411 7.55614 23.7406 7.61195 23.8638 7.68006C22.7563 8.24164 21.6777 8.79223 20.593 9.33052C20.5153 9.36919 20.3812 9.34547 20.2943 9.30504C18.8804 8.64679 17.4684 7.98428 16.0585 7.31754L11.7026 5.26676ZM17.1415 2.81391C18.2485 2.31429 19.3175 1.82829 20.3921 1.35459C20.4642 1.32295 20.5865 1.36689 20.6703 1.40732C23.0735 2.57003 25.4753 3.73537 27.8755 4.90336C28.1135 5.01892 28.3498 5.13713 28.6092 5.265C28.5428 5.30059 28.5052 5.32213 28.4668 5.34146C27.4581 5.85383 26.4476 6.36311 25.441 6.87943C25.3869 6.91203 25.3249 6.92924 25.2618 6.92924C25.1987 6.92924 25.1367 6.91203 25.0825 6.87943C23.1271 5.87404 21.1699 4.8723 19.2109 3.87423C18.5332 3.52841 17.8559 3.18039 17.1415 2.81435V2.81391Z" stroke="#5E3DFD" stroke-width="0.5" mask="url(#path-1-outside-1_1_906)"/>
</g>
</g>
</g>
<defs>
<clipPath id="clip0_1_906">
<rect width="41" height="43" fill="white" transform="matrix(-1 0 0 1 41 0)"/>
</clipPath>
</defs>
</svg>
