<svg width="33" height="39" viewBox="0 0 33 39" fill="none" xmlns="http://www.w3.org/2000/svg">
<g id="Frame">
<g clip-path="url(#clip0_1_1097)">
<g id="ZIXLJU.tif">
<path id="Vector" d="M2.17092 19.8103L2.17084 19.8103C2.14684 19.8349 2.12428 19.8593 2.10402 19.8819L13.5434 31.561C13.6471 31.4573 13.7578 31.3611 13.8747 31.2732L13.8802 31.2691L13.8803 31.2693C14.067 31.1443 14.2673 31.0792 14.4679 31.0958C14.67 31.1126 14.8566 31.2111 15.0164 31.384C15.1752 31.5559 15.2658 31.7539 15.2742 31.9602C15.2827 32.167 15.208 32.369 15.06 32.5468L15.0594 32.5475C14.7299 32.9376 14.3721 33.3019 13.9891 33.6373L13.9889 33.6375C13.8036 33.7988 13.5981 33.8759 13.3815 33.8516C13.1688 33.8278 12.9664 33.7084 12.7782 33.5207M2.17092 19.8103L12.8665 33.4322M2.17092 19.8103C8.0146 13.828 13.8658 7.85377 19.7244 1.88748C19.881 1.74886 20.0801 1.67145 20.2864 1.66833C23.0672 1.65597 25.8478 1.65671 28.6289 1.65745C29.2906 1.65763 29.9524 1.65781 30.6142 1.65781H31.3317C31.3338 1.68644 31.3359 1.71278 31.3379 1.7375L31.3391 1.75247C31.343 1.80001 31.3463 1.84082 31.3487 1.88192C31.3489 2.35274 31.349 2.82357 31.3492 3.2944C31.3503 6.56203 31.3514 9.82988 31.3376 13.097C31.3199 13.2945 31.2355 13.4791 31.0994 13.6194L31.0991 13.6197C29.8738 14.8908 28.639 16.1528 27.4039 17.4152C27.0858 17.7403 26.7677 18.0654 26.4498 18.3907C26.3597 18.4827 26.2674 18.5748 26.1745 18.6675C25.9545 18.8868 25.7308 19.1098 25.5247 19.3448C25.0889 19.8418 25.2217 20.5769 25.8231 20.8041C26.0326 20.8854 26.227 20.8864 26.4076 20.8241C26.5845 20.763 26.7391 20.6441 26.8787 20.501L26.8787 20.5009C27.5029 19.86 28.1287 19.2204 28.7546 18.5808C30.0898 17.2161 31.4254 15.8511 32.7466 14.4723L32.7468 14.4724L32.7517 14.4666C32.9802 14.1972 33.1082 13.8545 33.1138 13.4988L33.1138 13.4975C33.1306 10.2531 33.1292 7.0086 33.1277 3.7645C33.1273 2.85313 33.1269 1.94178 33.1269 1.03048V1.03033M2.17092 19.8103L33.1269 1.03033M12.7782 33.5207L12.8665 33.4322M12.7782 33.5207C12.7782 33.5207 12.7782 33.5207 12.7782 33.5208L12.8665 33.4322M12.7782 33.5207C12.2581 33.0022 11.7446 32.4754 11.233 31.9505C11.1406 31.8557 11.0482 31.7609 10.9559 31.6663M12.8665 33.4322C12.3471 32.9144 11.8344 32.3884 11.3227 31.8634C11.2302 31.7685 11.1377 31.6737 11.0452 31.5789L10.9559 31.6663M10.9559 31.6663C10.9558 31.6662 10.9558 31.6662 10.9558 31.6662M10.9559 31.6663L10.9558 31.6662M10.9558 31.6662L0.350753 20.8236C0.350745 20.8236 0.350737 20.8236 0.35073 20.8236C0.0583394 20.5248 -0.121431 20.2615 -0.121719 19.9762C-0.122008 19.6908 0.0573755 19.4277 0.350748 19.1293C6.48654 12.8588 12.6207 6.58735 18.7534 0.314917C18.8863 0.170317 19.0481 0.0562775 19.228 -0.0193444C19.4079 -0.0949397 19.6017 -0.130342 19.7962 -0.123099C22.8005 -0.114619 25.8046 -0.115019 28.8091 -0.115418C29.8695 -0.115559 30.9301 -0.1157 31.9906 -0.11545L10.9558 31.6662ZM26.7892 20.4137C27.4139 19.7723 28.0399 19.1325 28.6659 18.4927C30.0009 17.1283 31.3356 15.7641 32.6564 14.3858L26.7892 20.4137ZM26.7892 20.4137C26.5242 20.6855 26.2349 20.83 25.8678 20.6874L26.7892 20.4137ZM33.1269 1.03033C33.1264 0.631526 33.0679 0.330266 32.8737 0.135692M33.1269 1.03033L32.8737 0.135692M32.8737 0.135692C32.6793 -0.0590598 32.3805 -0.115447 31.9906 -0.11545L32.8737 0.135692Z" fill="#5E3DFD" stroke="#5E3DFD" stroke-width="0.25"/>
<path id="Vector_2" d="M31.3431 30.5846H31.3431C31.345 31.4711 31.1756 32.3491 30.8447 33.1684C30.5132 33.9891 30.0262 34.7345 29.412 35.3619C28.7977 35.9892 28.0683 36.4861 27.2657 36.8241C26.4631 37.162 25.6032 37.3344 24.7353 37.3315C23.871 37.3283 23.0157 37.1511 22.2182 36.81C21.4208 36.4688 20.6968 35.9704 20.0876 35.3431C19.4784 34.7157 18.9961 33.9717 18.6682 33.1534C18.3403 32.3352 18.1734 31.4589 18.177 30.5746L18.177 30.5738C18.1751 29.6861 18.3449 28.8069 18.6765 27.9866C19.0082 27.1664 19.4953 26.4214 20.1095 25.7945C20.7237 25.1675 21.453 24.671 22.2554 24.3333C23.0577 23.9955 23.9173 23.8232 24.7849 23.8262C26.5301 23.8342 28.2013 24.5498 29.4312 25.8166C30.6603 27.0826 31.3481 28.7955 31.3431 30.5798H31.3431V30.5801L31.3431 30.5842L31.3431 30.5846ZM16.3961 30.4839L16.5211 30.486L24.4614 39.0018L24.458 39.1267C24.458 39.1267 24.458 39.1267 24.4581 39.1267C29.0446 39.253 33.0766 35.5616 33.1203 30.6116C33.165 26.0661 29.4467 22.1632 25.083 22.0367C20.5615 21.9046 16.4816 25.5025 16.3961 30.4839Z" fill="#5E3DFD" stroke="#5E3DFD" stroke-width="0.25"/>
<path id="Vector_3" d="M28.652 8.413C28.6546 7.89464 28.5567 7.38083 28.3641 6.90112C28.1715 6.4214 27.8878 5.98517 27.5293 5.61764C27.1708 5.2501 26.7445 4.95852 26.275 4.75981C25.8057 4.56121 25.3024 4.45935 24.7943 4.46016L21.0184 8.37034L20.8934 8.3686C20.8934 8.36871 20.8934 8.36883 20.8934 8.36894C20.8636 10.5227 22.6116 12.343 24.7289 12.3571M28.652 8.413C28.6499 8.9352 28.5466 9.45186 28.3482 9.93324C28.1497 10.4147 27.8599 10.8513 27.4953 11.2181C27.1308 11.5848 26.6986 11.8744 26.2238 12.0699C25.749 12.2654 25.2409 12.363 24.7289 12.3571M28.652 8.413C28.652 8.41299 28.652 8.41297 28.652 8.41295L28.527 8.41244M28.652 8.413C28.652 8.41302 28.652 8.41304 28.652 8.41306L28.527 8.41244M24.7289 12.3571C24.7288 12.3571 24.7287 12.3571 24.7286 12.3571L24.7301 12.2321M24.7289 12.3571C24.729 12.3571 24.7291 12.3571 24.7293 12.3571L24.7301 12.2321M24.7301 12.2321C25.2253 12.2379 25.7168 12.1435 26.1762 11.9543C26.6355 11.7652 27.0537 11.485 27.4067 11.13C27.7596 10.7749 28.0404 10.352 28.2326 9.8856C28.4249 9.4192 28.525 8.91853 28.527 8.41244M24.7301 12.2321L28.527 8.41244M26.8776 8.38565L26.8776 8.38672C26.8801 8.67277 26.8273 8.95645 26.7223 9.22147C26.6173 9.48649 26.4622 9.72755 26.2661 9.93092C26.0699 10.1343 25.8366 10.2959 25.5795 10.4068C25.3228 10.5175 25.0473 10.5753 24.7688 10.5771C24.2137 10.5704 23.6827 10.3414 23.2902 9.93836C22.8975 9.53504 22.6751 8.98974 22.6715 8.41971V8.41818H22.6715L22.6715 8.41658C22.6678 8.13132 22.7198 7.84823 22.8242 7.58381C22.9287 7.31941 23.0835 7.07905 23.2796 6.8767C23.4756 6.67435 23.709 6.51404 23.966 6.40497C24.2229 6.2959 24.4984 6.24021 24.7765 6.24108L24.7772 6.24107C25.0524 6.24048 25.3251 6.29536 25.5798 6.40265C25.8344 6.50994 26.066 6.66757 26.2612 6.86665C26.4564 7.06573 26.6115 7.30235 26.7173 7.56303C26.8231 7.82371 26.8776 8.10326 26.8776 8.38565Z" fill="#5E3DFD" stroke="#5E3DFD" stroke-width="0.25"/>
<path id="Vector_4" d="M27.7793 28.1927L27.7794 28.1926C27.8089 28.1624 27.8391 28.1308 27.8698 28.0986C27.9377 28.0276 28.0084 27.9536 28.081 27.8855L28.0811 27.8854C28.2849 27.6948 28.515 27.5862 28.7463 27.576C28.9799 27.5657 29.2008 27.6565 29.3793 27.8384C29.5585 28.0209 29.6462 28.2489 29.6344 28.4865C29.6227 28.7228 29.5134 28.9578 29.3185 29.1608L29.3181 29.1612C28.1119 30.4052 26.9013 31.6445 25.6864 32.8789C25.5617 33.0066 25.4371 33.1348 25.3124 33.2631C24.9652 33.6203 24.6169 33.9785 24.2629 34.3297M27.7793 28.1927L24.1748 34.241M27.7793 28.1927L23.5615 32.5158C23.2116 32.1574 22.8651 31.8019 22.521 31.4487C22.0103 30.9246 21.5045 30.4055 21 29.89L20.9998 29.8898C20.7787 29.6649 20.5375 29.5328 20.2952 29.5118C20.049 29.4904 19.8209 29.5853 19.6362 29.7767C19.453 29.9667 19.3619 30.1937 19.3797 30.4357C19.3973 30.6747 19.5199 30.9111 19.73 31.1273C20.7702 32.2024 21.8164 33.2721 22.8685 34.3363M27.7793 28.1927L22.9576 34.2487M24.2629 34.3297L24.1748 34.241M24.2629 34.3297C24.2629 34.3297 24.2629 34.3297 24.263 34.3296L24.1748 34.241M24.2629 34.3297C24.0417 34.5496 23.8093 34.6792 23.5623 34.6813C23.3143 34.6833 23.0842 34.5567 22.8685 34.3363M24.1748 34.241C23.7563 34.6572 23.363 34.663 22.9576 34.2487M22.8685 34.3363C22.8685 34.3364 22.8686 34.3365 22.8687 34.3365L22.9576 34.2487M22.8685 34.3363C22.8684 34.3363 22.8683 34.3362 22.8682 34.3361L22.9576 34.2487" fill="#5E3DFD" stroke="#5E3DFD" stroke-width="0.25"/>
</g>
</g>
</g>
<defs>
<clipPath id="clip0_1_1097">
<rect width="33" height="39" fill="white"/>
</clipPath>
</defs>
</svg>
