<svg width="50" height="39" viewBox="0 0 50 39" fill="none" xmlns="http://www.w3.org/2000/svg">
<g id="Frame" clip-path="url(#clip0_1_891)">
<g id="GULQYq">
<path id="Vector" d="M0.119335 17.6385L0.344114 17.3478L5.39762 10.8103L-0.172159 5.51889L-0.491315 5.21568L-0.0674189 5.09691L13.4671 1.3047L13.4674 1.30463C13.9702 1.16431 14.474 1.01748 14.9794 0.870203C16.2651 0.495528 17.5606 0.117998 18.8738 -0.162503L18.8809 -0.16402L18.8881 -0.165123C19.2387 -0.218956 19.5965 -0.202247 19.9406 -0.115962C20.2847 -0.0296757 20.6082 0.12445 20.8923 0.337379L20.9021 0.344758L20.9019 0.344991C21.9488 1.21332 22.9343 2.15804 23.9722 3.15303C24.3107 3.47745 24.6547 3.80723 25.0082 4.14144C25.3519 3.81912 25.6934 3.49523 26.0343 3.17185C27.0679 2.19144 28.0967 1.21565 29.1675 0.302237C29.3854 0.11394 29.6868 -0.04482 29.9897 -0.141412C30.2874 -0.236316 30.6264 -0.283833 30.9103 -0.204647C35.9773 1.1597 41.0309 2.57101 46.2118 4.01788C47.4885 4.37441 48.7729 4.7331 50.0671 5.09378L50.4912 5.21196L50.1725 5.51561L44.599 10.8253L49.647 17.363L49.8713 17.6535L49.5189 17.7559C49.0823 17.8827 48.6566 18.0127 48.2381 18.1405C47.1897 18.4606 46.1865 18.7669 45.1714 18.975C44.7269 19.07 44.5045 19.2162 44.381 19.397C44.2513 19.5867 44.1956 19.8638 44.1986 20.3014C44.2166 22.1533 44.215 23.9974 44.2134 25.8408C44.2115 28.0388 44.2097 30.2358 44.241 32.4441C44.241 32.4442 44.241 32.4443 44.241 32.4443L43.991 32.4479C44.0062 33.462 43.7731 33.966 42.7226 34.2423L0.119335 17.6385ZM0.119335 17.6385L0.472361 17.7408C0.958088 17.8815 1.42604 18.0263 1.88259 18.1675C2.87483 18.4746 3.81317 18.7649 4.76291 18.96L4.76433 18.9603C5.2464 19.0564 5.47774 19.2162 5.60404 19.413C5.73916 19.6236 5.7891 19.9271 5.78917 20.3932C5.77388 22.2555 5.7758 24.1084 5.77771 25.9592C5.77997 28.1503 5.78223 30.3385 5.75592 32.536V32.539C5.75592 33.0288 5.81078 33.4481 6.03344 33.7812C6.2611 34.1218 6.63174 34.3262 7.15181 34.4655C10.3879 35.3365 13.6142 36.2343 16.842 37.1325C19.2861 37.8126 21.7311 38.493 24.182 39.1622L24.1819 39.1623L24.1872 39.1636C24.7514 39.3046 25.3424 39.2979 25.9032 39.1439C28.3023 38.488 30.6962 37.8213 33.0897 37.1546C36.319 36.2551 39.5475 35.3559 42.7869 34.4839L0.119335 17.6385ZM23.7858 19.0695V18.6644C23.5956 18.9073 23.4183 19.1328 23.2504 19.3464C22.853 19.852 22.5082 20.2908 22.1681 20.7342C21.2514 21.9142 20.8027 22.4971 20.2255 22.6851C19.659 22.8695 18.9688 22.6737 17.591 22.2888C15.2228 21.6216 12.8513 20.9706 10.4089 20.3002C9.59828 20.0777 8.77987 19.8531 7.95117 19.625C7.95115 19.7116 7.95112 19.798 7.95108 19.8843M23.7858 19.0695C23.6677 19.22 23.5547 19.3639 23.4456 19.5026C23.0491 20.0072 22.7058 20.4439 22.3665 20.8864L22.3655 20.8876L22.3324 20.9303C21.8976 21.49 21.5594 21.9253 21.2601 22.2439C20.9513 22.5726 20.6631 22.8005 20.3221 22.9164C19.9803 23.0325 19.6173 23.0254 19.1811 22.9488C18.7582 22.8745 18.238 22.7291 17.5703 22.5426L17.5237 22.5295L17.5232 22.5294C15.1558 21.8624 12.7854 21.2118 10.3431 20.5414C9.55407 20.3248 8.75749 20.1062 7.95108 19.8843M23.7858 19.0695V36.8389C22.7433 36.5503 21.7089 36.2648 20.6802 35.981C17.9372 35.2241 15.2356 34.4786 12.5338 33.7163L12.5322 33.7158C12.1352 33.6065 11.7026 33.5217 11.2737 33.4407C11.2232 33.4312 11.1728 33.4217 11.1226 33.4122C10.7417 33.3406 10.366 33.27 10.0097 33.1847C9.18691 32.9878 8.55177 32.7297 8.23707 32.2927C7.88972 31.8065 7.8059 31.0859 7.82474 30.2263C7.83292 29.853 7.85968 29.4668 7.88682 29.0751C7.89052 29.0217 7.89423 28.9682 7.8979 28.9146C7.92823 28.4715 7.9558 28.0237 7.95116 27.5998M23.7858 19.0695C23.8667 18.9665 23.9499 18.8603 24.0358 18.7506L8.03419 32.4388C7.45883 31.6344 7.54873 30.3374 7.63743 29.0577C7.67193 28.5599 7.70626 28.0647 7.70117 27.6021M7.95108 19.8843C7.86786 19.8614 7.78454 19.8384 7.70111 19.8155C7.70073 20.6759 7.69852 21.5189 7.69635 22.3499C7.69168 24.1368 7.68715 25.8688 7.70117 27.6021M7.95108 19.8843C7.95061 20.7222 7.94846 21.5431 7.94635 22.3524C7.94168 24.1383 7.93715 25.8679 7.95116 27.5998M7.95116 27.5998C7.95116 27.5996 7.95116 27.5995 7.95115 27.5994L7.70117 27.6021M7.95116 27.5998C7.95116 27.5999 7.95116 27.6 7.95116 27.6001L7.70117 27.6021M10.9458 10.6788C10.9569 10.6846 10.9681 10.6904 10.9793 10.6961C11.5601 10.8586 12.1407 11.0213 12.7214 11.1839C16.6318 12.2793 20.5404 13.3742 24.458 14.437C24.8932 14.5291 25.3446 14.5095 25.7704 14.3801L25.7778 14.3779L25.7778 14.378C29.9482 13.2488 34.1096 12.0892 38.272 10.9264L38.2732 10.9261C38.4496 10.8777 38.6245 10.8077 38.8546 10.7117C38.8814 10.7005 38.9089 10.689 38.9371 10.6772C38.9682 10.6642 39.0002 10.6508 39.0332 10.6371C38.8708 10.5904 38.7126 10.5449 38.5579 10.5004C37.5886 10.2216 36.7581 9.98272 35.9289 9.75012C35.9289 9.75011 35.9288 9.7501 35.9288 9.75009L10.9458 10.6788ZM10.9458 10.6788C12.146 10.3262 13.2116 10.0106 14.2843 9.68813L10.9458 10.6788ZM45.3967 15.3426L45.3964 15.3422C45.1613 15.0451 44.9402 14.7122 44.7263 14.3811C44.6816 14.3121 44.6374 14.2432 44.5934 14.1747C44.4241 13.9112 44.258 13.6526 44.0865 13.4084C43.6481 12.7838 43.2184 12.3201 42.7248 12.1611L42.7245 12.161C42.1966 11.9903 41.5428 12.0902 40.8014 12.3084C40.4601 12.4088 40.1119 12.5303 39.7589 12.6536C39.7332 12.6626 39.7075 12.6715 39.6817 12.6805C39.3052 12.8119 38.9235 12.9435 38.5539 13.0447M45.3967 15.3426L38.4877 12.8037M45.3967 15.3426C45.6022 15.6013 45.7983 15.8665 46.044 16.1987C46.1061 16.2826 46.1714 16.3709 46.2408 16.4645M45.3967 15.3426L46.2408 16.4645M38.5539 13.0447C38.5538 13.0448 38.5538 13.0448 38.5537 13.0448L38.4877 12.8037M38.5539 13.0447C38.554 13.0447 38.554 13.0447 38.5541 13.0447L38.4877 12.8037M38.5539 13.0447C35.7715 13.8116 32.994 14.5964 30.152 15.3993C29.0601 15.7078 27.9587 16.0189 26.8439 16.3328M38.4877 12.8037C35.7045 13.5708 32.9257 14.3559 30.0833 15.1589C28.9603 15.4762 27.8274 15.7963 26.6803 16.1191C26.7351 16.1906 26.7896 16.2619 26.8439 16.3328M26.8439 16.3328C26.7576 16.3571 26.6713 16.3814 26.5849 16.4057C26.7769 16.6567 26.9659 16.9046 27.1527 17.1496C28.0803 18.3661 28.9539 19.5119 29.8753 20.6097M26.8439 16.3328C27.016 16.5579 27.1857 16.7804 27.3534 17.0004C28.2766 18.2111 29.1422 19.3464 30.0551 20.4351M30.0551 20.4351C30.051 20.4315 30.0469 20.4278 30.0428 20.4242L29.8753 20.6097M30.0551 20.4351C30.1792 20.5438 30.3256 20.6238 30.484 20.6691C30.6445 20.715 30.813 20.7243 30.9774 20.6964C34.787 19.6691 38.5813 18.6071 42.4666 17.5196C43.7141 17.1704 44.971 16.8186 46.2408 16.4645M30.0551 20.4351C30.059 20.4397 30.0629 20.4444 30.0668 20.449L29.8753 20.6097M29.8753 20.6097C30.0302 20.7496 30.2148 20.8521 30.4153 20.9095C30.6157 20.9668 30.8265 20.9775 31.0316 20.9407L46.2408 16.4645M41.57 32.499L41.5687 32.4994C37.3906 33.7217 33.1968 34.8881 28.8999 36.0831C27.9984 36.3339 27.0923 36.5859 26.1809 36.8399V19.0398C26.3853 19.2907 26.5835 19.5301 26.7755 19.762C27.458 20.5863 28.0618 21.3155 28.581 22.126L28.5813 22.1265C28.9116 22.6397 29.2771 22.9421 29.7213 23.0565C30.1536 23.1678 30.6171 23.0886 31.1147 22.9414L31.1148 22.9414C34.3094 21.9946 37.5246 21.1055 40.7371 20.2171L40.9785 20.1503C40.9792 20.1501 40.9798 20.15 40.9804 20.1498C41.2174 20.0881 41.4515 20.039 41.745 19.9775C41.8377 19.9581 41.9363 19.9374 42.0428 19.9147V23.8615C42.0428 24.5293 42.0451 25.1955 42.0474 25.8605C42.0538 27.7268 42.0602 29.5842 42.0158 31.443C42.0064 31.6301 41.9392 31.8968 41.8355 32.1275C41.7839 32.2423 41.7276 32.3382 41.6728 32.4066C41.6143 32.4797 41.5769 32.497 41.57 32.499ZM46.2788 6.22777C45.0778 7.36815 44.0347 8.34693 42.9677 9.30935C42.8996 9.3508 42.824 9.37854 42.7452 9.39096C42.6608 9.40428 42.5745 9.3997 42.4919 9.37753C39.7361 8.61208 36.9822 7.83854 34.1858 7.05307C31.8757 6.40422 29.5367 5.74722 27.1436 5.07989C27.4004 4.8382 27.6457 4.60554 27.8829 4.38061C28.6909 3.61439 29.4044 2.93771 30.1542 2.29801C30.2924 2.1911 30.451 2.11364 30.6202 2.07037C30.787 2.02767 30.9606 2.01916 31.1306 2.04528C36.0839 3.38335 41.0263 4.75605 46.2788 6.22777ZM22.8621 5.08349C18.9498 6.18908 15.2745 7.22593 11.5966 8.25144L11.5958 8.25165C11.5056 8.27709 11.4131 8.29857 11.3137 8.32156L11.311 8.3222C11.2144 8.34456 11.1111 8.36845 11.0086 8.39738L11.0081 8.39752C9.88982 8.71547 9.06918 8.94849 8.40906 9.06549C7.7531 9.18175 7.28298 9.17785 6.86207 9.04155C6.4396 8.90474 6.03709 8.62501 5.53498 8.13174C5.07974 7.68451 4.5591 7.07882 3.87794 6.27547C3.90306 6.26507 3.92785 6.25478 3.95236 6.24461C4.18371 6.14858 4.38977 6.06305 4.61182 6.00024L4.61183 6.00024C6.17567 5.55776 7.74123 5.11869 9.30708 4.67954C12.2946 3.84168 15.2832 3.00353 18.263 2.1408C18.7054 2.01277 19.0563 1.97765 19.3652 2.04574C19.6689 2.11271 19.9617 2.28624 20.2753 2.63306L20.2762 2.63405C20.8625 3.27558 21.5186 3.86792 22.2286 4.50889C22.4353 4.69549 22.6466 4.88623 22.8621 5.08349ZM3.74861 16.4404C3.9956 16.1208 4.23794 15.8055 4.47734 15.4941C5.35937 14.3467 6.20132 13.2515 7.08769 12.1814C7.18223 12.1129 7.29022 12.0653 7.40453 12.0416C7.5266 12.0163 7.65279 12.019 7.77364 12.0495C12.8463 13.4395 17.913 14.847 23.1811 16.3287C22.9193 16.6667 22.6678 16.9947 22.4232 17.3138C21.6003 18.3873 20.8544 19.3604 20.0468 20.2759C19.8939 20.4225 19.7101 20.5327 19.509 20.5983C19.3097 20.6633 19.0985 20.6829 18.8908 20.6557C14.7683 19.5439 10.6597 18.3867 6.41602 17.1913C5.53317 16.9426 4.64449 16.6923 3.74861 16.4404Z" fill="#5E3DFD" stroke="#5E3DFD" stroke-width="0.5"/>
</g>
</g>
<defs>
<clipPath id="clip0_1_891">
<rect width="50" height="39" fill="white"/>
</clipPath>
</defs>
</svg>
