<svg width="45" height="42" viewBox="0 0 45 42" fill="none" xmlns="http://www.w3.org/2000/svg">
<g id="Frame" clip-path="url(#clip0_1_1093)">
<g id="ttIkhl">
<path id="Vector" d="M1.60813 8.90249C1.56654 8.8855 1.52488 8.86846 1.48313 8.85139C1.48313 15.8293 1.48338 22.6456 1.5101 29.464C1.5101 29.7301 1.85969 30.1122 2.13067 30.2411M1.60813 8.90249C1.60813 15.8626 1.60844 22.662 1.6351 29.4635L1.6351 29.464C1.6351 29.5514 1.698 29.6844 1.81463 29.8238C1.92746 29.9586 2.0688 30.0731 2.18396 30.128M1.60813 8.90249C2.02054 9.07102 2.42507 9.23563 2.82392 9.39792C3.77545 9.78509 4.69467 10.1591 5.61142 10.542L5.6115 10.542C6.83729 11.053 8.06227 11.5662 9.28737 12.0795C11.4334 12.9787 13.5797 13.878 15.7315 14.7652L15.7332 14.7659C15.979 14.8632 16.1446 14.9654 16.2512 15.1023C16.3557 15.2365 16.4153 15.4199 16.4154 15.705C16.3947 22.3876 16.3947 29.0723 16.3947 35.7567C16.3819 35.8545 16.3646 35.9515 16.3428 36.0475M1.60813 8.90249C1.60813 8.85748 1.60813 8.81247 1.60813 8.76745C2.03645 8.94255 2.45639 9.11342 2.87034 9.28185C3.82219 9.66916 4.74231 10.0436 5.65959 10.4267L16.3428 36.0475M2.18396 30.128C2.1838 30.1279 2.18365 30.1278 2.18349 30.1278L2.13067 30.2411M2.18396 30.128C2.99429 30.5057 3.81841 30.8411 4.65086 31.1798C4.96887 31.3092 5.2881 31.439 5.60824 31.572L5.6084 31.5721L16.3428 36.0475M2.18396 30.128L16.3428 36.0475M2.13067 30.2411C2.94418 30.6203 3.77283 30.9575 4.60648 31.2967C4.92388 31.4258 5.24201 31.5553 5.5603 31.6874L2.13067 30.2411ZM-0.106446 31.0688V31.1521L-0.0294611 31.1842C1.65092 31.8833 3.32641 32.5822 4.99908 33.28C8.9184 34.915 12.8222 36.5436 16.737 38.1524C16.9285 38.2317 17.154 38.2445 17.3708 38.224C17.5894 38.2033 17.8097 38.1477 17.9975 38.0805C19.4209 37.5763 20.8367 37.0451 22.2696 36.5074C22.7313 36.3342 23.1947 36.1603 23.6608 35.9864C26.9837 41.7116 32.7277 43.0379 37.2502 41.5742C41.7413 40.1216 45.5554 35.5267 45.0853 29.3616C44.6872 24.1339 40.8857 20.1882 34.6642 18.8454V17.8359C34.6642 17.0262 34.6627 16.2166 34.6611 15.407C34.6571 13.2239 34.653 11.0412 34.6786 8.85927C34.6829 8.48625 34.6347 8.18078 34.4833 7.92501C34.3312 7.66786 34.0851 7.47795 33.7287 7.31468C31.1082 6.11342 28.4949 4.89629 25.8811 3.67872L25.7714 3.62762C23.1944 2.42713 20.6168 1.22641 18.0322 0.0405566L18.0323 0.04049L18.0283 0.0388391C17.5419 -0.164472 16.9994 -0.179648 16.5028 -0.00378019L16.5027 -0.00391994L16.4971 -0.00161012C13.6715 1.15666 10.8505 2.33297 8.03009 3.50906C5.62828 4.5106 3.22685 5.51197 0.823233 6.50191L0.82319 6.50193C0.496826 6.63649 0.252881 6.7902 0.0943974 7.01971C-0.0644846 7.24979 -0.125031 7.53785 -0.125033 7.91396L-0.125028 7.91479C-0.0983988 11.9408 -0.101446 15.9668 -0.104493 19.9932C-0.105469 21.2835 -0.106446 22.5739 -0.106446 23.8643V31.0688ZM33.766 40.3167L33.6405 40.3162V40.3256C32.4136 40.3215 31.1985 40.0754 30.0623 39.6004C28.8878 39.1094 27.8212 38.3837 26.9252 37.4657C26.0291 36.5478 25.3217 35.4561 24.8446 34.2548C24.3676 33.0536 24.1305 31.767 24.1474 30.4707L24.1474 30.4692C24.1487 29.1744 24.4013 27.8928 24.8906 26.6984C25.3798 25.5039 26.096 24.4205 26.9975 23.5104C27.8991 22.6004 28.9683 21.8819 30.1432 21.3962C31.3181 20.9106 32.5754 20.6673 33.8428 20.6806L33.8436 20.6806C39.1036 20.7014 43.3628 25.1285 43.3628 30.5536C43.3634 31.8392 43.1152 33.1122 42.6325 34.2995C42.1497 35.4868 41.4421 36.5648 40.5502 37.4719C39.6584 38.3789 38.5999 39.0971 37.4357 39.5852C36.2716 40.0734 35.0244 40.322 33.766 40.3167ZM11.7215 4.15773C11.6583 4.11543 11.5972 4.07004 11.5384 4.0217C12.0046 3.82829 12.4629 3.63694 12.9156 3.44791C14.2384 2.89555 15.5139 2.36298 16.8027 1.8565C17.0802 1.75091 17.3854 1.75053 17.6631 1.85536C21.6397 3.66486 25.6149 5.49302 29.7468 7.39329C30.3391 7.66567 30.9346 7.93954 31.5338 8.21505C31.113 8.36812 30.7003 8.51863 30.2939 8.66681C28.6885 9.25225 27.1826 9.80141 25.6692 10.3298L25.6692 10.3297L25.6659 10.331C25.6095 10.3525 25.5242 10.3494 25.4117 10.3191C25.3026 10.2898 25.1888 10.2409 25.0853 10.1944C20.6286 8.18712 16.174 6.17488 11.7215 4.15773ZM23.0784 11.3281C22.694 11.4702 22.3124 11.6118 21.9329 11.7526C20.482 12.291 19.0624 12.8178 17.6351 13.3132L17.6343 13.3135C17.4125 13.3922 17.1713 13.3926 16.9494 13.3146C12.3655 11.405 7.78434 9.48837 3.20595 7.5647C3.20328 7.56348 3.19544 7.55899 3.17036 7.5343C3.68398 7.31753 4.19402 7.10118 4.7018 6.88579C6.11872 6.28477 7.51805 5.6912 8.92828 5.11683C9.15758 5.05787 9.40001 5.08302 9.6133 5.1882L9.61326 5.18827L9.61737 5.19012C14.087 7.19766 18.5531 9.21012 23.0158 11.2275C23.0188 11.2314 23.0268 11.2419 23.041 11.2652C23.0466 11.2746 23.053 11.2853 23.0602 11.2975C23.0658 11.3069 23.0719 11.3172 23.0784 11.3281ZM28.599 11.1369C29.8818 10.657 31.1646 10.1771 32.4477 9.69871C32.5682 9.66393 32.6901 9.6342 32.813 9.60959L32.807 18.9032C29.2109 19.3453 26.296 20.9835 24.259 24.1214C22.2209 27.261 21.9451 30.6702 22.9506 34.3273L18.1925 36.0695C18.187 35.9945 18.1814 35.9238 18.176 35.8563C18.1577 35.6237 18.1424 35.4295 18.1424 35.2326V35.1949V35.1572V35.1194V35.0817V35.044V35.0062V34.9685V34.9308V34.893V34.8553V34.8176V34.7798V34.7421V34.7044V34.6666V34.6289V34.5912V34.5534V34.5157V34.4779V34.4402V34.4025V34.3647V34.327V34.2893V34.2515V34.2138V34.1761V34.1383V34.1006V34.0629V34.0251V33.9874V33.9497V33.9119V33.8742V33.8365V33.7987V33.761V33.7232V33.6855V33.6478V33.61V33.5723V33.5346V33.4968V33.4591V33.4214V33.3836V33.3459V33.3082V33.2704V33.2327V33.195V33.1572V33.1195V33.0818V33.044V33.0063V32.9685V32.9308V32.8931V32.8553V32.8176V32.7799V32.7421V32.7044V32.6667V32.6289V32.5912V32.5535V32.5157V32.478V32.4403V32.4025V32.3648V32.3271V32.2893V32.2516V32.2139V32.1761V32.1384V32.1006V32.0629V32.0252V31.9874V31.9497V31.912V31.8742V31.8365V31.7988V31.761V31.7233V31.6856V31.6478V31.6101V31.5724V31.5346V31.4969V31.4592V31.4214V31.3837V31.3459V31.3082V31.2705V31.2327V31.195V31.1573V31.1195V31.0818V31.0441V31.0063V30.9686V30.9309V30.8931V30.8554V30.8177V30.7799V30.7422V30.7045V30.6667V30.629V30.5912V30.5535V30.5158V30.478V30.4403V30.4026V30.3648V30.3271V30.2894V30.2516V30.2139V30.1762V30.1384V30.1007V30.063V30.0252V29.9875V29.9498V29.912V29.8743V29.8365V29.7988V29.7611V29.7233V29.6856V29.6479V29.6101V29.5724V29.5347V29.4969V29.4592V29.4215V29.3837V29.346V29.3083V29.2705V29.2328V29.1951V29.1573V29.1196V29.0819V29.0441V29.0064V28.9686V28.9309V28.8932V28.8554V28.8177V28.78V28.7422V28.7045V28.6668V28.629V28.5913V28.5536V28.5158V28.4781V28.4404V28.4026V28.3649V28.3272V28.2894V28.2517V28.2139V28.1762V28.1385V28.1007V28.063V28.0253V27.9875V27.9498V27.9121V27.8743V27.8366V27.7989V27.7611V27.7234V27.6857V27.6479V27.6102V27.5725V27.5347V27.497V27.4592V27.4215V27.3838V27.346V27.3083V27.2706V27.2328V27.1951V27.1574V27.1196V27.0819V27.0442V27.0064V26.9687V26.931V26.8932V26.8555V26.8178V26.78V26.7423V26.7045V26.6668V26.6291V26.5913V26.5536V26.5159V26.4781V26.4404V26.4027V26.3649V26.3272V26.2895V26.2517V26.214V26.1763V26.1385V26.1008V26.0631V26.0253V25.9876V25.9499V25.9121V25.8744V25.8366V25.7989V25.7612V25.7234V25.6857V25.648V25.6102V25.5725V25.5348V25.497V25.4593V25.4216V25.3838V25.3461V25.3084V25.2706V25.2329V25.1952V25.1574V25.1197V25.0819V25.0442V25.0065V24.9687V24.931V24.8933V24.8555V24.8178V24.7801V24.7423V24.7046V24.6669V24.6291V24.5914V24.5537V24.5159V24.4782V24.4405V24.4027V24.365V24.3272V24.2895V24.2518V24.214V24.1763V24.1386V24.1008V24.0631V24.0254V23.9876V23.9499V23.9122V23.8744V23.8367V23.799V23.7612V23.7235V23.6858V23.648V23.6103V23.5725V23.5348V23.4971V23.4593V23.4216V23.3839V23.3461V23.3084V23.2707V23.2329V23.1952V23.1575V23.1197V23.082V23.0443V23.0065V22.9688V22.9311V22.8933V22.8556V22.8179V22.7801V22.7424V22.7046V22.6669V22.6292V22.5914V22.5537V22.516V22.4782V22.4405V22.4028V22.365V22.3273V22.2896V22.2518V22.2141V22.1764V22.1386V22.1009V22.0632V22.0254V21.9877V21.9499V21.9122V21.8745V21.8367V21.799V21.7613V21.7235V21.6858V21.6481V21.6103V21.5726V21.5349V21.4971V21.4594V21.4217V21.3839V21.3462V21.3085V21.2707V21.233V21.1952V21.1575V21.1198V21.082V21.0443V21.0066V20.9688V20.9311V20.8934V20.8556V20.8179V20.7802V20.7424V20.7047V20.667V20.6292V20.5915V20.5538V20.516V20.4783V20.4405V20.4028V20.3651V20.3273V20.2896V20.2519V20.2141V20.1764V20.1387V20.1009V20.0632V20.0255V19.9877V19.95V19.9123V19.8745V19.8368V19.7991V19.7613V19.7236V19.6859V19.6481V19.6104V19.5726V19.5349V19.4972V19.4594V19.4217V19.384V19.3462V19.3085V19.2708V19.233V19.1953V19.1576V19.1198V19.0821V19.0444V19.0066V18.9689V18.9312V18.8934V18.8557V18.8179V18.7802V18.7425V18.7047V18.667V18.6293V18.5915V18.5538V18.5161V18.4783V18.4406V18.4029V18.3651V18.3274V18.2897V18.2519V18.2142V18.1765V18.1387V18.101V18.0632V18.0255V17.9878V17.95V17.9123V17.8746V17.8368V17.7991V17.7614V17.7236V17.6859V17.6482V17.6104V17.5727V17.535V17.4972V17.4595V17.4218V17.384V17.3463V17.3085V17.2708V17.2331V17.1953V17.1576V17.1199V17.0821V17.0444V17.0067V16.9689V16.9312V16.8935V16.8557V16.818V16.7803V16.7425V16.7048V16.6671V16.6293V16.5916V16.5538V16.5161V16.4784V16.4406V16.4029V16.3652V16.3274V16.2897V16.252V16.2142V16.1765V16.1388V16.101V16.0633V16.0256V15.9878V15.9501V15.9124C18.1424 15.8896 18.1423 15.8672 18.1423 15.8453C18.1418 15.5985 18.1414 15.4037 18.2024 15.2379C18.2631 15.0729 18.391 14.9252 18.7016 14.8114C22.0065 13.6033 25.303 12.37 28.599 11.1369Z" fill="#5E3DFD" stroke="#5E3DFD" stroke-width="0.25"/>
<path id="Vector_2" d="M38.3603 26.6877L32.5041 32.8359L29.934 29.8574L29.8485 29.7584L29.7534 29.8483L28.6571 30.885L28.5637 30.9734L28.6546 31.0642L32.5291 34.9367L32.6187 35.0263L32.707 34.9355L39.4444 28.0161L39.5206 27.9379L39.4532 27.8519L38.5493 26.6969L38.4601 26.583L38.3603 26.6877Z" fill="#5E3DFD" stroke="#5E3DFD" stroke-width="0.25"/>
</g>
</g>
<defs>
<clipPath id="clip0_1_1093">
<rect width="45" height="42" fill="white"/>
</clipPath>
</defs>
</svg>
