<svg width="44" height="49" viewBox="0 0 44 49" fill="none" xmlns="http://www.w3.org/2000/svg">
<g id="Frame" clip-path="url(#clip0_1_1073)">
<g id="DERhRo.tif">
<path id="Vector" d="M21.6094 11.6657C19.6043 11.6657 17.5977 11.6397 15.594 11.6871C15.168 11.7034 14.7605 11.8696 14.4401 12.1576C12.353 14.2307 10.312 16.339 8.28003 18.461C8.02528 18.7211 7.8671 19.0642 7.83279 19.4311C7.80595 25.0225 7.81343 30.614 7.81492 36.207C7.81492 36.3597 7.83725 36.5049 7.85514 36.7126H30.5037V19.648H14.6831V17.2235C14.9559 17.2113 15.2168 17.1884 15.4792 17.1884C20.4883 17.1884 25.4975 17.1777 30.5067 17.1991C30.7494 17.2097 30.9914 17.1649 31.2152 17.068C31.439 16.971 31.639 16.8243 31.8007 16.6384C33.3377 15.0175 34.906 13.4302 36.5713 11.7131H31.1835L31.091 11.4717C32.2494 10.6452 32.731 8.93874 34.6854 9.13123C36.4058 9.29928 38.1545 9.16637 39.8899 9.16637H40.7202C40.7352 9.48871 40.753 9.71176 40.753 9.93023C40.753 16.589 40.75 23.2489 40.7441 29.9097C40.7441 30.1908 40.7024 30.562 40.5294 30.7408C38.5645 32.7818 36.5698 34.7938 34.4752 36.9219C34.4752 35.7273 34.4603 34.638 34.4931 33.5487C34.4931 33.396 34.7242 33.2325 34.8613 33.0904C35.893 32.021 36.938 30.9761 37.9548 29.8975C38.1426 29.6989 38.3364 29.3933 38.3379 29.1336C38.3603 23.9745 38.3543 18.8154 38.3543 13.5509C38.1965 13.6388 38.0469 13.741 37.9071 13.8565C36.3805 15.4208 34.8479 16.9776 33.3556 18.574C33.13 18.8578 33.0082 19.2133 33.0112 19.5793C32.9904 25.8063 32.9963 32.0348 32.9963 38.2617V39.2181H5.41618C5.40276 38.9676 5.37742 38.7017 5.37742 38.4344C5.37742 31.8519 5.37343 25.2685 5.36548 18.684C5.35279 18.4476 5.39095 18.2112 5.47725 17.9916C5.56355 17.772 5.6959 17.5744 5.86492 17.413C8.39931 14.8418 10.9143 12.2371 13.4681 9.67662C13.7874 9.38507 14.1935 9.21277 14.6205 9.18775C16.0323 9.1297 17.453 9.1404 18.8604 9.18775C19.2159 9.21558 19.5537 9.35841 19.8249 9.59566C20.4913 10.1884 21.0981 10.8484 21.7302 11.4809L21.6094 11.6657Z" fill="#5E3DFD"/>
<path id="Vector_2" d="M14.2835 43.7433H7.91029C7.91029 44.9273 7.91029 46.0654 7.91029 47.202C7.91029 48.0331 6.96958 48.991 6.15858 48.9956C4.69559 49.0017 3.23261 49.0017 1.76962 48.9956C0.964574 48.9956 0.0104408 48.0255 0.00745914 47.2143C0.00745914 45.792 -0.0104205 44.3681 0.0179051 42.9458C0.0188778 42.6535 0.117806 42.3703 0.298161 42.1438C1.37751 40.9888 2.49266 39.869 3.63015 38.7033L5.22831 40.5534L4.73633 41.1187C4.91332 41.1666 5.09382 41.1998 5.27602 41.218C14.2209 41.218 23.1698 41.2088 32.1226 41.1905C32.5271 41.1567 32.9071 40.9782 33.1961 40.6863C35.9332 37.9232 38.651 35.1392 41.3493 32.3343C41.7712 31.8958 42.138 31.7095 42.6911 32.0456C42.943 32.1983 43.277 32.2274 43.5006 32.4091C43.7242 32.5909 43.9583 32.8675 43.9627 33.1165C43.9985 35.1239 44.0373 37.1344 43.9493 39.1372C43.8944 39.7589 43.6383 40.3439 43.2218 40.7994C40.8783 43.2834 38.4646 45.6988 36.0987 48.1584C35.7483 48.5235 35.4904 48.5907 35.0223 48.3753C33.615 47.7291 33.6031 47.7566 33.6031 46.1708V43.7143H30.5364V46.4642H32.5997V48.9772C31.5562 48.9772 30.4768 49.0277 29.4049 48.9559C28.8697 48.9192 28.0974 47.7123 28.0959 47.1226C28.0959 46.0104 28.0959 44.8982 28.0959 43.7402H22.1699C22.1699 44.9166 22.1699 46.0776 22.1699 47.2387C22.1699 48.0148 21.2248 48.9879 20.4645 48.9925C18.9736 48.9996 17.4858 48.9996 16.001 48.9925C15.2421 48.9925 14.2925 48.0163 14.288 47.2463C14.2791 46.1067 14.2835 44.9655 14.2835 43.7433ZM35.8005 41.8321C35.9019 42.7747 36.0018 43.702 36.1136 44.7348C37.8936 42.9015 39.6215 41.1248 41.3389 39.3419C41.4649 39.221 41.5461 39.059 41.5685 38.8836C41.5894 37.8555 41.5789 36.8273 41.5789 35.9015L35.8005 41.8321ZM19.7742 43.7448H16.7344V46.4382H19.7742V43.7448ZM5.48771 43.7372H2.52398V46.4565H5.48771V43.7372Z" fill="#5E3DFD"/>
<path id="Vector_3" d="M35.972 4.2471L34.2978 5.87565C29.8253 1.24056 22.7812 1.41777 18.5816 5.82371L16.9178 4.15239C21.4887 -1.17782 30.6244 -1.61933 35.972 4.2471Z" fill="#5E3DFD"/>
<path id="Vector_4" d="M31.495 8.76437C28.7385 5.87851 24.4047 5.61269 21.1771 8.86673C20.9463 8.54653 20.6974 8.24046 20.4317 7.9501C20.1401 7.68869 19.834 7.44486 19.5148 7.21985C22.7946 3.04918 30.0519 3.05376 33.1677 7.06708L31.495 8.76437Z" fill="#5E3DFD"/>
<path id="Vector_5" d="M30.3933 9.9671L28.7638 11.5819C26.872 10.1428 25.9313 10.1458 24.0037 11.617L22.3712 9.96099C24.3093 7.45096 28.3867 7.4311 30.3933 9.9671Z" fill="#5E3DFD"/>
<path id="Vector_6" d="M28.6029 13.6042C27.6845 14.423 27.1314 15.8087 25.484 15.4894C25.0368 15.4023 24.5284 15.5505 24.0842 15.4389C23.8471 15.3778 23.4953 14.8126 23.5206 14.7851C23.9679 14.2901 24.4151 13.543 24.9682 13.4453C26.1147 13.239 27.3222 13.3826 28.5044 13.3826L28.6029 13.6042Z" fill="#5E3DFD"/>
</g>
</g>
<defs>
<clipPath id="clip0_1_1073">
<rect width="44" height="49" fill="white"/>
</clipPath>
</defs>
</svg>
