<svg width="40" height="32" viewBox="0 0 40 32" fill="none" xmlns="http://www.w3.org/2000/svg">
<g id="Frame" clip-path="url(#clip0_1_847)">
<g id="ySoOza.tif">
<path id="Vector" d="M34.1128 31.7648H6.26514C6.23935 31.7415 6.2158 31.7015 6.18551 31.6948C3.71804 31.1755 2.61552 29.8199 2.61552 27.3189C2.61552 22.5793 2.60543 17.8386 2.6245 13.0979C2.6245 12.3384 2.58972 11.7457 1.80013 11.2675C0.678548 10.5902 0.174958 9.44036 0.00559998 8.16039V7.82677C0.100934 7.43533 0.171605 7.03499 0.297222 6.65133C0.875957 4.88205 1.46927 3.11722 2.06034 1.35239C2.46074 0.158047 2.68505 -0.000976562 3.94571 -0.000976562H36.3751C37.3228 0.010144 37.6267 0.226995 37.924 1.11108C38.5117 2.85811 39.0893 4.6096 39.6848 6.35441C40.4094 8.47621 39.9159 10.1354 38.0832 11.4576C37.7064 11.729 37.6211 12.0036 37.6223 12.4196C37.6323 17.5161 37.6223 22.6126 37.6324 27.7103C37.6324 29.3973 36.8764 30.6016 35.3735 31.35C34.9776 31.5513 34.5289 31.6314 34.1128 31.7648ZM10.9993 11.015C9.9899 11.4832 9.0747 12.0459 8.0765 12.3362C7.07829 12.6264 5.97465 12.6564 4.87101 12.8066C4.86005 12.8607 4.8548 12.9159 4.85532 12.9711C4.85532 17.8642 4.85532 22.7572 4.85532 27.6502C4.85532 28.8324 5.55294 29.4729 6.76201 29.474C12.2204 29.474 17.6817 29.474 23.146 29.474C23.3446 29.474 23.5431 29.4573 23.7988 29.4451C23.7988 29.1793 23.7988 28.9625 23.7988 28.7445C23.8066 25.5318 23.7809 22.3179 23.8358 19.1052C23.8627 17.4916 25.2535 16.1405 26.8854 16.0415C27.814 15.9848 28.7483 15.9837 29.6792 16.0137C31.7575 16.0804 33.09 17.4705 33.0922 19.5367C33.0922 22.6393 33.0922 25.742 33.0922 28.8446V29.4195C34.4852 29.7109 35.4071 28.8791 35.3892 27.5023C35.3286 22.7561 35.3656 18.0087 35.3656 13.2681V12.6175C32.989 12.9355 30.9702 12.2972 29.1969 10.9105C26.5635 12.9889 23.4287 13.6595 20.1122 10.9995C17.085 13.327 14.1431 13.4315 10.9993 11.015ZM20.028 2.24648C14.9417 2.24648 9.8542 2.25427 4.76784 2.23536C4.27771 2.23536 4.05002 2.35991 3.90309 2.8381C3.46567 4.26597 2.97555 5.67717 2.49776 7.0917C2.08726 8.31496 2.36541 9.08339 3.47465 9.76731C5.46882 10.9972 8.32437 10.5457 9.87327 8.75089C10.5462 7.97245 11.1743 7.98468 11.8921 8.71642C12.2904 9.12832 12.7331 9.49564 13.2122 9.81179C15.2109 11.1018 17.7434 10.6069 19.1476 8.68083C19.723 7.89127 20.5686 7.92797 21.1664 8.72753C22.0099 9.86072 23.1483 10.5068 24.5861 10.5068C26.024 10.5068 27.177 9.79733 28.1494 8.79426C28.985 7.9313 29.5155 7.93686 30.3028 8.85097C31.7856 10.5713 34.7061 11.0006 36.6263 9.77954C37.7109 9.09007 37.9845 8.3272 37.5819 7.14175C37.103 5.72833 36.5994 4.32158 36.1732 2.89148C36.0139 2.35547 35.7537 2.23981 35.2344 2.24204C30.1638 2.25427 25.0953 2.24648 20.028 2.24648ZM30.8558 29.4518C30.8558 26.0278 30.8681 22.6749 30.8457 19.3221C30.8457 18.6471 30.369 18.2512 29.6792 18.2345C28.9547 18.2167 28.2279 18.2245 27.5022 18.2345C26.4446 18.2434 26.0442 18.6382 26.0442 19.6713C26.0442 22.7502 26.0442 25.8291 26.0442 28.908V29.4562L30.8558 29.4518Z" fill="#5E3DFD"/>
<path id="Vector_2" d="M13.8246 27.2142C12.334 27.2142 10.8434 27.2142 9.35284 27.2142C8.09331 27.2142 7.17025 26.3012 7.16576 25.0501C7.15829 22.76 7.15829 20.471 7.16576 18.1832C7.16576 16.9777 8.03387 16.0358 9.24405 16.0247C12.2992 15.995 15.3544 15.995 18.4096 16.0247C19.6433 16.038 20.4677 16.9577 20.4711 18.1798C20.477 20.4692 20.477 22.7582 20.4711 25.0468C20.4711 26.3167 19.5671 27.2053 18.2963 27.2086C16.808 27.2197 15.314 27.2142 13.8246 27.2142ZM9.40555 24.9745H18.2043V18.2655H9.40555V24.9745Z" fill="#5E3DFD"/>
</g>
</g>
<defs>
<clipPath id="clip0_1_847">
<rect width="40" height="31.7647" fill="white"/>
</clipPath>
</defs>
</svg>
